<svg width="502" height="330" viewBox="0 0 502 330" fill="none" xmlns="http://www.w3.org/2000/svg">
<path d="M2 275H222V330H2V275Z" fill="#BDAE82"/>
<path d="M77.7868 310H79.5481V303.494H87.3038V310H89.0652V295.455H87.3038V301.932H79.5481V295.455H77.7868V310ZM92.3642 310H94.0403V299.091H92.3642V310ZM93.2164 297.273C93.8699 297.273 94.4096 296.761 94.4096 296.136C94.4096 295.511 93.8699 295 93.2164 295C92.563 295 92.0233 295.511 92.0233 296.136C92.0233 296.761 92.563 297.273 93.2164 297.273ZM97.1103 310H98.7864V303.097C98.7864 301.619 99.9512 300.54 101.542 300.54C101.99 300.54 102.451 300.625 102.565 300.653V298.949C102.373 298.935 101.933 298.92 101.684 298.92C100.377 298.92 99.2409 299.659 98.8432 300.739H98.7296V299.091H97.1103V310ZM108.794 310.227C111.009 310.227 112.629 309.119 113.14 307.472L111.521 307.017C111.095 308.153 110.107 308.722 108.794 308.722C106.826 308.722 105.47 307.45 105.392 305.114H113.311V304.403C113.311 300.341 110.896 298.949 108.623 298.949C105.669 298.949 103.708 301.278 103.708 304.631C103.708 307.983 105.64 310.227 108.794 310.227ZM105.392 303.665C105.505 301.967 106.705 300.455 108.623 300.455C110.441 300.455 111.606 301.818 111.606 303.665H105.392ZM121.485 310H123.161V303.182C123.161 301.584 124.326 300.455 125.633 300.455C126.904 300.455 127.792 301.286 127.792 302.528V310H129.497V302.898C129.497 301.491 130.377 300.455 131.911 300.455C133.105 300.455 134.127 301.087 134.127 302.699V310H135.803V302.699C135.803 300.135 134.426 298.949 132.48 298.949C130.917 298.949 129.774 299.666 129.213 300.795H129.099C128.559 299.631 127.607 298.949 126.173 298.949C124.752 298.949 123.701 299.631 123.247 300.795H123.105V299.091H121.485V310ZM143.442 310.227C145.658 310.227 147.277 309.119 147.789 307.472L146.169 307.017C145.743 308.153 144.756 308.722 143.442 308.722C141.475 308.722 140.118 307.45 140.04 305.114H147.959V304.403C147.959 300.341 145.544 298.949 143.271 298.949C140.317 298.949 138.357 301.278 138.357 304.631C138.357 307.983 140.289 310.227 143.442 310.227ZM140.04 303.665C140.154 301.967 141.354 300.455 143.271 300.455C145.09 300.455 146.254 301.818 146.254 303.665H140.04Z" fill="black"/>
<path d="M11.7159 146.091H13.4205C13.3423 143.896 11.3182 142.256 8.50568 142.256C5.72159 142.256 3.53409 143.875 3.53409 146.318C3.53409 148.278 4.95455 149.443 7.22727 150.097L9.01705 150.608C10.5511 151.034 11.9148 151.574 11.9148 153.023C11.9148 154.614 10.3807 155.665 8.36364 155.665C6.63068 155.665 5.09659 154.898 4.95455 153.25H3.13636C3.30682 155.636 5.23864 157.256 8.36364 157.256C11.7159 157.256 13.6193 155.409 13.6193 153.051C13.6193 150.324 11.0341 149.443 9.52841 149.045L8.05114 148.648C6.97159 148.364 5.23864 147.795 5.23864 146.233C5.23864 144.841 6.51705 143.818 8.44886 143.818C10.2102 143.818 11.5455 144.656 11.7159 146.091ZM19.4982 157.256C21.4016 157.256 22.396 156.233 22.7369 155.523H22.8221V157H24.4982V149.812C24.4982 146.347 21.8562 145.949 20.4641 145.949C18.8164 145.949 16.9414 146.517 16.0891 148.506L17.68 149.074C18.0494 148.278 18.9229 147.426 20.521 147.426C22.0621 147.426 22.8221 148.243 22.8221 149.642V149.699C22.8221 150.509 21.9982 150.438 20.0096 150.693C17.9854 150.956 15.7766 151.403 15.7766 153.903C15.7766 156.034 17.4244 157.256 19.4982 157.256ZM19.7539 155.75C18.4187 155.75 17.4528 155.153 17.4528 153.989C17.4528 152.71 18.6175 152.312 19.9244 152.142C20.6346 152.057 22.538 151.858 22.8221 151.517V153.051C22.8221 154.415 21.7425 155.75 19.7539 155.75ZM36.0874 146.091H34.2692L31.2578 154.784H31.1442L28.1328 146.091H26.3146L30.3487 157H32.0533L36.0874 146.091ZM42.483 157.227C44.6989 157.227 46.3182 156.119 46.8295 154.472L45.2102 154.017C44.7841 155.153 43.7969 155.722 42.483 155.722C40.5156 155.722 39.1591 154.45 39.081 152.114H47V151.403C47 147.341 44.5852 145.949 42.3125 145.949C39.358 145.949 37.3977 148.278 37.3977 151.631C37.3977 154.983 39.3295 157.227 42.483 157.227ZM39.081 150.665C39.1946 148.967 40.3949 147.455 42.3125 147.455C44.1307 147.455 45.2955 148.818 45.2955 150.665H39.081ZM62.902 148.534C62.3764 146.986 61.1974 145.949 59.0384 145.949C56.7372 145.949 55.0327 147.256 55.0327 149.102C55.0327 150.608 55.9276 151.616 57.9304 152.085L59.7486 152.511C60.8494 152.767 61.3679 153.293 61.3679 154.045C61.3679 154.983 60.3736 155.75 58.8111 155.75C57.4403 155.75 56.581 155.161 56.2827 153.989L54.6918 154.386C55.0824 156.24 56.6094 157.227 58.8395 157.227C61.375 157.227 63.1009 155.842 63.1009 153.96C63.1009 152.44 62.1491 151.482 60.2031 151.006L58.5838 150.608C57.2912 150.288 56.7088 149.855 56.7088 149.017C56.7088 148.08 57.7031 147.398 59.0384 147.398C60.5014 147.398 61.1051 148.207 61.3963 148.96L62.902 148.534ZM65.6239 157H67.3001V146.091H65.6239V157ZM66.4762 144.273C67.1296 144.273 67.6694 143.761 67.6694 143.136C67.6694 142.511 67.1296 142 66.4762 142C65.8228 142 65.283 142.511 65.283 143.136C65.283 143.761 65.8228 144.273 66.4762 144.273ZM72.0462 150.438C72.0462 148.534 73.2251 147.455 74.8303 147.455C76.3857 147.455 77.3303 148.47 77.3303 150.182V157H79.0064V150.068C79.0064 147.284 77.522 145.949 75.3132 145.949C73.6655 145.949 72.6428 146.688 72.1314 147.795H71.9893V146.091H70.37V157H72.0462V150.438ZM86.5011 157.227C88.9158 157.227 90.5067 155.75 90.7908 153.818H89.1147C88.8022 155.011 87.8079 155.722 86.5011 155.722C84.5124 155.722 83.234 154.074 83.234 151.545C83.234 149.074 84.5408 147.455 86.5011 147.455C87.9783 147.455 88.859 148.364 89.1147 149.358H90.7908C90.5067 147.312 88.7738 145.949 86.4727 145.949C83.5181 145.949 81.5579 148.278 81.5579 151.602C81.5579 154.869 83.4329 157.227 86.5011 157.227ZM97.815 157.227C100.031 157.227 101.65 156.119 102.162 154.472L100.542 154.017C100.116 155.153 99.1289 155.722 97.815 155.722C95.8477 155.722 94.4911 154.45 94.413 152.114H102.332V151.403C102.332 147.341 99.9173 145.949 97.6445 145.949C94.69 145.949 92.7298 148.278 92.7298 151.631C92.7298 154.983 94.6616 157.227 97.815 157.227ZM94.413 150.665C94.5266 148.967 95.7269 147.455 97.6445 147.455C99.4627 147.455 100.627 148.818 100.627 150.665H94.413ZM104.882 157H106.558V150.097C106.558 148.619 107.723 147.54 109.314 147.54C109.761 147.54 110.223 147.625 110.336 147.653V145.949C110.145 145.935 109.704 145.92 109.456 145.92C108.149 145.92 107.012 146.659 106.615 147.739H106.501V146.091H104.882V157ZM116.565 157.227C118.781 157.227 120.4 156.119 120.912 154.472L119.292 154.017C118.866 155.153 117.879 155.722 116.565 155.722C114.598 155.722 113.241 154.45 113.163 152.114H121.082V151.403C121.082 147.341 118.667 145.949 116.395 145.949C113.44 145.949 111.48 148.278 111.48 151.631C111.48 154.983 113.412 157.227 116.565 157.227ZM113.163 150.665C113.277 148.967 114.477 147.455 116.395 147.455C118.213 147.455 119.377 148.818 119.377 150.665H113.163ZM133.831 157.227C136.047 157.227 137.666 156.119 138.177 154.472L136.558 154.017C136.132 155.153 135.145 155.722 133.831 155.722C131.863 155.722 130.507 154.45 130.429 152.114H138.348V151.403C138.348 147.341 135.933 145.949 133.66 145.949C130.706 145.949 128.745 148.278 128.745 151.631C128.745 154.983 130.677 157.227 133.831 157.227ZM130.429 150.665C130.542 148.967 131.743 147.455 133.66 147.455C135.478 147.455 136.643 148.818 136.643 150.665H130.429ZM140.897 157H142.574V150.182C142.574 148.584 143.738 147.455 145.045 147.455C146.316 147.455 147.204 148.286 147.204 149.528V157H148.909V149.898C148.909 148.491 149.789 147.455 151.324 147.455C152.517 147.455 153.539 148.087 153.539 149.699V157H155.216V149.699C155.216 147.135 153.838 145.949 151.892 145.949C150.329 145.949 149.186 146.666 148.625 147.795H148.511C147.971 146.631 147.02 145.949 145.585 145.949C144.164 145.949 143.113 146.631 142.659 147.795H142.517V146.091H140.897V157ZM162.712 157.227C165.667 157.227 167.655 154.983 167.655 151.602C167.655 148.193 165.667 145.949 162.712 145.949C159.757 145.949 157.769 148.193 157.769 151.602C157.769 154.983 159.757 157.227 162.712 157.227ZM162.712 155.722C160.468 155.722 159.445 153.79 159.445 151.602C159.445 149.415 160.468 147.455 162.712 147.455C164.956 147.455 165.979 149.415 165.979 151.602C165.979 153.79 164.956 155.722 162.712 155.722ZM174.958 146.091H172.629V143.477H170.952V146.091H169.305V147.511H170.952V154.33C170.952 156.233 172.487 157.142 173.907 157.142C174.532 157.142 174.93 157.028 175.157 156.943L174.816 155.438C174.674 155.466 174.447 155.523 174.077 155.523C173.339 155.523 172.629 155.295 172.629 153.875V147.511H174.958V146.091ZM177.479 157H179.156V146.091H177.479V157ZM178.332 144.273C178.985 144.273 179.525 143.761 179.525 143.136C179.525 142.511 178.985 142 178.332 142C177.678 142 177.138 142.511 177.138 143.136C177.138 143.761 177.678 144.273 178.332 144.273ZM186.657 157.227C189.612 157.227 191.6 154.983 191.6 151.602C191.6 148.193 189.612 145.949 186.657 145.949C183.703 145.949 181.714 148.193 181.714 151.602C181.714 154.983 183.703 157.227 186.657 157.227ZM186.657 155.722C184.413 155.722 183.39 153.79 183.39 151.602C183.39 149.415 184.413 147.455 186.657 147.455C188.902 147.455 189.924 149.415 189.924 151.602C189.924 153.79 188.902 155.722 186.657 155.722ZM195.835 150.438C195.835 148.534 197.014 147.455 198.619 147.455C200.175 147.455 201.119 148.47 201.119 150.182V157H202.795V150.068C202.795 147.284 201.311 145.949 199.102 145.949C197.455 145.949 196.432 146.688 195.92 147.795H195.778V146.091H194.159V157H195.835V150.438ZM213.586 148.534C213.06 146.986 211.881 145.949 209.722 145.949C207.421 145.949 205.716 147.256 205.716 149.102C205.716 150.608 206.611 151.616 208.614 152.085L210.432 152.511C211.533 152.767 212.051 153.293 212.051 154.045C212.051 154.983 211.057 155.75 209.495 155.75C208.124 155.75 207.265 155.161 206.966 153.989L205.375 154.386C205.766 156.24 207.293 157.227 209.523 157.227C212.059 157.227 213.784 155.842 213.784 153.96C213.784 152.44 212.833 151.482 210.887 151.006L209.267 150.608C207.975 150.288 207.392 149.855 207.392 149.017C207.392 148.08 208.387 147.398 209.722 147.398C211.185 147.398 211.789 148.207 212.08 148.96L213.586 148.534ZM218.808 155.011H216.989L216.904 155.807C216.698 157.732 216.293 159.649 216.109 160.551H217.387C217.728 159.585 218.452 157.398 218.694 155.778L218.808 155.011ZM227.538 157H229.214V150.097C229.214 148.619 230.379 147.54 231.97 147.54C232.417 147.54 232.879 147.625 232.993 147.653V145.949C232.801 145.935 232.36 145.92 232.112 145.92C230.805 145.92 229.669 146.659 229.271 147.739H229.157V146.091H227.538V157ZM239.079 157.227C242.034 157.227 244.022 154.983 244.022 151.602C244.022 148.193 242.034 145.949 239.079 145.949C236.125 145.949 234.136 148.193 234.136 151.602C234.136 154.983 236.125 157.227 239.079 157.227ZM239.079 155.722C236.835 155.722 235.812 153.79 235.812 151.602C235.812 149.415 236.835 147.455 239.079 147.455C241.324 147.455 242.346 149.415 242.346 151.602C242.346 153.79 241.324 155.722 239.079 155.722ZM246.581 157H248.257V150.182C248.257 148.584 249.422 147.455 250.729 147.455C252 147.455 252.888 148.286 252.888 149.528V157H254.592V149.898C254.592 148.491 255.473 147.455 257.007 147.455C258.2 147.455 259.223 148.087 259.223 149.699V157H260.899V149.699C260.899 147.135 259.521 145.949 257.575 145.949C256.013 145.949 254.869 146.666 254.308 147.795H254.195C253.655 146.631 252.703 145.949 251.268 145.949C249.848 145.949 248.797 146.631 248.342 147.795H248.2V146.091H246.581V157ZM267.174 157.256C269.077 157.256 270.072 156.233 270.413 155.523H270.498V157H272.174V149.812C272.174 146.347 269.532 145.949 268.14 145.949C266.492 145.949 264.617 146.517 263.765 148.506L265.356 149.074C265.725 148.278 266.599 147.426 268.197 147.426C269.738 147.426 270.498 148.243 270.498 149.642V149.699C270.498 150.509 269.674 150.438 267.685 150.693C265.661 150.956 263.452 151.403 263.452 153.903C263.452 156.034 265.1 157.256 267.174 157.256ZM267.43 155.75C266.094 155.75 265.129 155.153 265.129 153.989C265.129 152.71 266.293 152.312 267.6 152.142C268.31 152.057 270.214 151.858 270.498 151.517V153.051C270.498 154.415 269.418 155.75 267.43 155.75ZM276.909 150.438C276.909 148.534 278.088 147.455 279.694 147.455C281.249 147.455 282.194 148.47 282.194 150.182V157H283.87V150.068C283.87 147.284 282.385 145.949 280.176 145.949C278.529 145.949 277.506 146.688 276.995 147.795H276.853V146.091H275.233V157H276.909V150.438ZM291.677 146.091H289.347V143.477H287.671V146.091H286.023V147.511H287.671V154.33C287.671 156.233 289.205 157.142 290.626 157.142C291.251 157.142 291.648 157.028 291.876 156.943L291.535 155.438C291.393 155.466 291.165 155.523 290.796 155.523C290.058 155.523 289.347 155.295 289.347 153.875V147.511H291.677V146.091ZM294.198 157H295.874V146.091H294.198V157ZM295.05 144.273C295.704 144.273 296.244 143.761 296.244 143.136C296.244 142.511 295.704 142 295.05 142C294.397 142 293.857 142.511 293.857 143.136C293.857 143.761 294.397 144.273 295.05 144.273ZM303.376 157.227C305.791 157.227 307.382 155.75 307.666 153.818H305.99C305.677 155.011 304.683 155.722 303.376 155.722C301.387 155.722 300.109 154.074 300.109 151.545C300.109 149.074 301.416 147.455 303.376 147.455C304.853 147.455 305.734 148.364 305.99 149.358H307.666C307.382 147.312 305.649 145.949 303.348 145.949C300.393 145.949 298.433 148.278 298.433 151.602C298.433 154.869 300.308 157.227 303.376 157.227ZM320.599 146.091H318.156V144.983C318.156 143.903 318.61 143.335 319.718 143.335C320.201 143.335 320.485 143.449 320.656 143.506L321.139 142.057C320.883 141.943 320.372 141.773 319.548 141.773C317.985 141.773 316.48 142.71 316.48 144.585V146.091H314.718V147.511H316.48V157H318.156V147.511H320.599V146.091ZM327.073 157.227C329.289 157.227 330.908 156.119 331.419 154.472L329.8 154.017C329.374 155.153 328.387 155.722 327.073 155.722C325.105 155.722 323.749 154.45 323.671 152.114H331.59V151.403C331.59 147.341 329.175 145.949 326.902 145.949C323.948 145.949 321.988 148.278 321.988 151.631C321.988 154.983 323.919 157.227 327.073 157.227ZM323.671 150.665C323.784 148.967 324.985 147.455 326.902 147.455C328.721 147.455 329.885 148.818 329.885 150.665H323.671ZM338.713 157.227C340.929 157.227 342.549 156.119 343.06 154.472L341.441 154.017C341.015 155.153 340.027 155.722 338.713 155.722C336.746 155.722 335.39 154.45 335.311 152.114H343.23V151.403C343.23 147.341 340.816 145.949 338.543 145.949C335.588 145.949 333.628 148.278 333.628 151.631C333.628 154.983 335.56 157.227 338.713 157.227ZM335.311 150.665C335.425 148.967 336.625 147.455 338.543 147.455C340.361 147.455 341.526 148.818 341.526 150.665H335.311ZM347.456 142.455H345.78V157H347.456V142.455ZM350.526 157H352.202V146.091H350.526V157ZM351.379 144.273C352.032 144.273 352.572 143.761 352.572 143.136C352.572 142.511 352.032 142 351.379 142C350.725 142 350.185 142.511 350.185 143.136C350.185 143.761 350.725 144.273 351.379 144.273ZM356.949 150.438C356.949 148.534 358.127 147.455 359.733 147.455C361.288 147.455 362.233 148.47 362.233 150.182V157H363.909V150.068C363.909 147.284 362.424 145.949 360.216 145.949C358.568 145.949 357.545 146.688 357.034 147.795H356.892V146.091H355.272V157H356.949V150.438ZM371.375 161.318C373.989 161.318 376.091 160.125 376.091 157.312V146.091H374.472V147.824H374.301C373.932 147.256 373.25 145.949 371.119 145.949C368.364 145.949 366.46 148.136 366.46 151.489C366.46 154.898 368.449 156.83 371.091 156.83C373.222 156.83 373.903 155.58 374.273 154.983H374.415V157.199C374.415 159.017 373.136 159.841 371.375 159.841C369.393 159.841 368.697 158.797 368.25 158.193L366.915 159.131C367.597 160.274 368.939 161.318 371.375 161.318ZM371.318 155.324C369.216 155.324 368.136 153.733 368.136 151.46C368.136 149.244 369.188 147.455 371.318 147.455C373.364 147.455 374.443 149.102 374.443 151.46C374.443 153.875 373.335 155.324 371.318 155.324ZM386.886 148.534C386.361 146.986 385.182 145.949 383.023 145.949C380.722 145.949 379.017 147.256 379.017 149.102C379.017 150.608 379.912 151.616 381.915 152.085L383.733 152.511C384.834 152.767 385.352 153.293 385.352 154.045C385.352 154.983 384.358 155.75 382.795 155.75C381.425 155.75 380.565 155.161 380.267 153.989L378.676 154.386C379.067 156.24 380.594 157.227 382.824 157.227C385.359 157.227 387.085 155.842 387.085 153.96C387.085 152.44 386.134 151.482 384.188 151.006L382.568 150.608C381.276 150.288 380.693 149.855 380.693 149.017C380.693 148.08 381.688 147.398 383.023 147.398C384.486 147.398 385.089 148.207 385.381 148.96L386.886 148.534ZM398.444 157.256C400.347 157.256 401.341 156.233 401.682 155.523H401.767V157H403.444V149.812C403.444 146.347 400.801 145.949 399.409 145.949C397.762 145.949 395.887 146.517 395.034 148.506L396.625 149.074C396.995 148.278 397.868 147.426 399.466 147.426C401.007 147.426 401.767 148.243 401.767 149.642V149.699C401.767 150.509 400.944 150.438 398.955 150.693C396.931 150.956 394.722 151.403 394.722 153.903C394.722 156.034 396.37 157.256 398.444 157.256ZM398.699 155.75C397.364 155.75 396.398 155.153 396.398 153.989C396.398 152.71 397.563 152.312 398.87 152.142C399.58 152.057 401.483 151.858 401.767 151.517V153.051C401.767 154.415 400.688 155.75 398.699 155.75ZM408.179 150.438C408.179 148.534 409.358 147.455 410.963 147.455C412.518 147.455 413.463 148.47 413.463 150.182V157H415.139V150.068C415.139 147.284 413.655 145.949 411.446 145.949C409.798 145.949 408.776 146.688 408.264 147.795H408.122V146.091H406.503V157H408.179V150.438ZM422.321 157.227C424.424 157.227 425.134 155.92 425.503 155.324H425.702V157H427.321V142.455H425.645V147.824H425.503C425.134 147.256 424.48 145.949 422.35 145.949C419.594 145.949 417.691 148.136 417.691 151.574C417.691 155.04 419.594 157.227 422.321 157.227ZM422.549 155.722C420.446 155.722 419.367 153.875 419.367 151.545C419.367 149.244 420.418 147.455 422.549 147.455C424.594 147.455 425.674 149.102 425.674 151.545C425.674 154.017 424.566 155.722 422.549 155.722ZM5.21023 190.438C5.21023 188.534 6.42472 187.455 8.07955 187.455C9.65625 187.455 10.608 188.449 10.608 190.182V197H12.2841V190.068C12.2841 187.263 10.7926 185.949 8.5625 185.949C6.84375 185.949 5.86364 186.666 5.35227 187.795H5.21023V182.455H3.53409V197H5.21023V190.438ZM18.5607 197.256C20.4641 197.256 21.4585 196.233 21.7994 195.523H21.8846V197H23.5607V189.812C23.5607 186.347 20.9187 185.949 19.5266 185.949C17.8789 185.949 16.0039 186.517 15.1516 188.506L16.7425 189.074C17.1119 188.278 17.9854 187.426 19.5835 187.426C21.1246 187.426 21.8846 188.243 21.8846 189.642V189.699C21.8846 190.509 21.0607 190.438 19.0721 190.693C17.0479 190.956 14.8391 191.403 14.8391 193.903C14.8391 196.034 16.4869 197.256 18.5607 197.256ZM18.8164 195.75C17.4812 195.75 16.5153 195.153 16.5153 193.989C16.5153 192.71 17.68 192.312 18.9869 192.142C19.6971 192.057 21.6005 191.858 21.8846 191.517V193.051C21.8846 194.415 20.805 195.75 18.8164 195.75ZM26.62 201.091H28.2962V195.324H28.4382C28.8075 195.92 29.5178 197.227 31.62 197.227C34.3473 197.227 36.2507 195.04 36.2507 191.574C36.2507 188.136 34.3473 185.949 31.5916 185.949C29.4609 185.949 28.8075 187.256 28.4382 187.824H28.2393V186.091H26.62V201.091ZM28.2678 191.545C28.2678 189.102 29.3473 187.455 31.3928 187.455C33.5234 187.455 34.5746 189.244 34.5746 191.545C34.5746 193.875 33.495 195.722 31.3928 195.722C29.3757 195.722 28.2678 194.017 28.2678 191.545ZM38.8075 201.091H40.4837V195.324H40.6257C40.995 195.92 41.7053 197.227 43.8075 197.227C46.5348 197.227 48.4382 195.04 48.4382 191.574C48.4382 188.136 46.5348 185.949 43.7791 185.949C41.6484 185.949 40.995 187.256 40.6257 187.824H40.4268V186.091H38.8075V201.091ZM40.4553 191.545C40.4553 189.102 41.5348 187.455 43.5803 187.455C45.7109 187.455 46.7621 189.244 46.7621 191.545C46.7621 193.875 45.6825 195.722 43.5803 195.722C41.5632 195.722 40.4553 194.017 40.4553 191.545ZM51.6839 201.091C53.1967 201.091 54.2621 200.288 54.8942 198.591L59.5391 186.119L57.7067 186.091L54.6953 194.784H54.5817L51.5703 186.091H49.7521L53.7862 197.057L53.4737 197.909C52.8629 199.571 52.1101 199.727 50.8885 199.415L50.4624 200.892C50.6328 200.977 51.1158 201.091 51.6839 201.091ZM67.3817 197H69.0579V190.182C69.0579 188.584 70.2227 187.455 71.5295 187.455C72.8008 187.455 73.6886 188.286 73.6886 189.528V197H75.3931V189.898C75.3931 188.491 76.2738 187.455 77.8079 187.455C79.0011 187.455 80.0238 188.087 80.0238 189.699V197H81.6999V189.699C81.6999 187.135 80.3221 185.949 78.3761 185.949C76.8136 185.949 75.6701 186.666 75.109 187.795H74.9954C74.4556 186.631 73.5039 185.949 72.0692 185.949C70.6488 185.949 69.5977 186.631 69.1431 187.795H69.0011V186.091H67.3817V197ZM89.1964 197.227C92.1509 197.227 94.1396 194.983 94.1396 191.602C94.1396 188.193 92.1509 185.949 89.1964 185.949C86.2418 185.949 84.2532 188.193 84.2532 191.602C84.2532 194.983 86.2418 197.227 89.1964 197.227ZM89.1964 195.722C86.9521 195.722 85.9293 193.79 85.9293 191.602C85.9293 189.415 86.9521 187.455 89.1964 187.455C91.4407 187.455 92.4634 189.415 92.4634 191.602C92.4634 193.79 91.4407 195.722 89.1964 195.722ZM96.6982 197H98.3743V190.182C98.3743 188.584 99.5391 187.455 100.846 187.455C102.117 187.455 103.005 188.286 103.005 189.528V197H104.71V189.898C104.71 188.491 105.59 187.455 107.124 187.455C108.317 187.455 109.34 188.087 109.34 189.699V197H111.016V189.699C111.016 187.135 109.638 185.949 107.692 185.949C106.13 185.949 104.987 186.666 104.425 187.795H104.312C103.772 186.631 102.82 185.949 101.386 185.949C99.9652 185.949 98.9141 186.631 98.4595 187.795H98.3175V186.091H96.6982V197ZM118.655 197.227C120.871 197.227 122.49 196.119 123.001 194.472L121.382 194.017C120.956 195.153 119.969 195.722 118.655 195.722C116.688 195.722 115.331 194.45 115.253 192.114H123.172V191.403C123.172 187.341 120.757 185.949 118.484 185.949C115.53 185.949 113.57 188.278 113.57 191.631C113.57 194.983 115.501 197.227 118.655 197.227ZM115.253 190.665C115.366 188.967 116.567 187.455 118.484 187.455C120.303 187.455 121.467 188.818 121.467 190.665H115.253ZM127.398 190.438C127.398 188.534 128.577 187.455 130.182 187.455C131.737 187.455 132.682 188.47 132.682 190.182V197H134.358V190.068C134.358 187.284 132.874 185.949 130.665 185.949C129.017 185.949 127.994 186.688 127.483 187.795H127.341V186.091H125.722V197H127.398V190.438ZM142.165 186.091H139.836V183.477H138.159V186.091H136.512V187.511H138.159V194.33C138.159 196.233 139.694 197.142 141.114 197.142C141.739 197.142 142.137 197.028 142.364 196.943L142.023 195.438C141.881 195.466 141.654 195.523 141.284 195.523C140.546 195.523 139.836 195.295 139.836 193.875V187.511H142.165V186.091ZM152.218 188.534C151.693 186.986 150.514 185.949 148.355 185.949C146.054 185.949 144.349 187.256 144.349 189.102C144.349 190.608 145.244 191.616 147.247 192.085L149.065 192.511C150.166 192.767 150.684 193.293 150.684 194.045C150.684 194.983 149.69 195.75 148.127 195.75C146.757 195.75 145.897 195.161 145.599 193.989L144.008 194.386C144.399 196.24 145.926 197.227 148.156 197.227C150.691 197.227 152.417 195.842 152.417 193.96C152.417 192.44 151.466 191.482 149.52 191.006L147.9 190.608C146.608 190.288 146.025 189.855 146.025 189.017C146.025 188.08 147.02 187.398 148.355 187.398C149.818 187.398 150.422 188.207 150.713 188.96L152.218 188.534ZM164.997 197.227C167.952 197.227 169.94 194.983 169.94 191.602C169.94 188.193 167.952 185.949 164.997 185.949C162.043 185.949 160.054 188.193 160.054 191.602C160.054 194.983 162.043 197.227 164.997 197.227ZM164.997 195.722C162.753 195.722 161.73 193.79 161.73 191.602C161.73 189.415 162.753 187.455 164.997 187.455C167.241 187.455 168.264 189.415 168.264 191.602C168.264 193.79 167.241 195.722 164.997 195.722ZM177.357 186.091H174.914V184.983C174.914 183.903 175.368 183.335 176.476 183.335C176.959 183.335 177.243 183.449 177.414 183.506L177.897 182.057C177.641 181.943 177.13 181.773 176.306 181.773C174.743 181.773 173.238 182.71 173.238 184.585V186.091H171.476V187.511H173.238V197H174.914V187.511H177.357V186.091ZM187.007 182.455H185.331V197H187.007V182.455ZM190.077 197H191.753V186.091H190.077V197ZM190.929 184.273C191.583 184.273 192.123 183.761 192.123 183.136C192.123 182.511 191.583 182 190.929 182C190.276 182 189.736 182.511 189.736 183.136C189.736 183.761 190.276 184.273 190.929 184.273ZM199.681 186.091H197.238V184.983C197.238 183.903 197.692 183.335 198.8 183.335C199.283 183.335 199.567 183.449 199.738 183.506L200.221 182.057C199.965 181.943 199.454 181.773 198.63 181.773C197.067 181.773 195.562 182.71 195.562 184.585V186.091H193.8V187.511H195.562V197H197.238V187.511H199.681V186.091ZM206.155 197.227C208.371 197.227 209.99 196.119 210.501 194.472L208.882 194.017C208.456 195.153 207.469 195.722 206.155 195.722C204.188 195.722 202.831 194.45 202.753 192.114H210.672V191.403C210.672 187.341 208.257 185.949 205.984 185.949C203.03 185.949 201.07 188.278 201.07 191.631C201.07 194.983 203.001 197.227 206.155 197.227ZM202.753 190.665C202.866 188.967 204.067 187.455 205.984 187.455C207.803 187.455 208.967 188.818 208.967 190.665H202.753ZM223.591 186.091H221.261V183.477H219.585V186.091H217.938V187.511H219.585V194.33C219.585 196.233 221.119 197.142 222.54 197.142C223.165 197.142 223.562 197.028 223.79 196.943L223.449 195.438C223.307 195.466 223.08 195.523 222.71 195.523C221.972 195.523 221.261 195.295 221.261 193.875V187.511H223.591V186.091ZM230.427 197.227C233.381 197.227 235.37 194.983 235.37 191.602C235.37 188.193 233.381 185.949 230.427 185.949C227.472 185.949 225.484 188.193 225.484 191.602C225.484 194.983 227.472 197.227 230.427 197.227ZM230.427 195.722C228.183 195.722 227.16 193.79 227.16 191.602C227.16 189.415 228.183 187.455 230.427 187.455C232.671 187.455 233.694 189.415 233.694 191.602C233.694 193.79 232.671 195.722 230.427 195.722ZM242.332 201.318C244.946 201.318 247.048 200.125 247.048 197.312V186.091H245.429V187.824H245.258C244.889 187.256 244.207 185.949 242.076 185.949C239.321 185.949 237.417 188.136 237.417 191.489C237.417 194.898 239.406 196.83 242.048 196.83C244.179 196.83 244.86 195.58 245.23 194.983H245.372V197.199C245.372 199.017 244.093 199.841 242.332 199.841C240.35 199.841 239.654 198.797 239.207 198.193L237.872 199.131C238.554 200.274 239.896 201.318 242.332 201.318ZM242.275 195.324C240.173 195.324 239.093 193.733 239.093 191.46C239.093 189.244 240.145 187.455 242.275 187.455C244.321 187.455 245.4 189.102 245.4 191.46C245.4 193.875 244.292 195.324 242.275 195.324ZM254.69 197.227C256.906 197.227 258.525 196.119 259.037 194.472L257.417 194.017C256.991 195.153 256.004 195.722 254.69 195.722C252.723 195.722 251.366 194.45 251.288 192.114H259.207V191.403C259.207 187.341 256.792 185.949 254.52 185.949C251.565 185.949 249.605 188.278 249.605 191.631C249.605 194.983 251.537 197.227 254.69 197.227ZM251.288 190.665C251.402 188.967 252.602 187.455 254.52 187.455C256.338 187.455 257.502 188.818 257.502 190.665H251.288ZM266.501 186.091H264.172V183.477H262.495V186.091H260.848V187.511H262.495V194.33C262.495 196.233 264.029 197.142 265.45 197.142C266.075 197.142 266.473 197.028 266.7 196.943L266.359 195.438C266.217 195.466 265.99 195.523 265.62 195.523C264.882 195.523 264.172 195.295 264.172 193.875V187.511H266.501V186.091ZM270.933 190.438C270.933 188.534 272.147 187.455 273.802 187.455C275.379 187.455 276.331 188.449 276.331 190.182V197H278.007V190.068C278.007 187.263 276.515 185.949 274.285 185.949C272.566 185.949 271.586 186.666 271.075 187.795H270.933V182.455H269.257V197H270.933V190.438ZM285.647 197.227C287.863 197.227 289.482 196.119 289.994 194.472L288.374 194.017C287.948 195.153 286.961 195.722 285.647 195.722C283.68 195.722 282.323 194.45 282.245 192.114H290.164V191.403C290.164 187.341 287.749 185.949 285.477 185.949C282.522 185.949 280.562 188.278 280.562 191.631C280.562 194.983 282.494 197.227 285.647 197.227ZM282.245 190.665C282.359 188.967 283.559 187.455 285.477 187.455C287.295 187.455 288.46 188.818 288.46 190.665H282.245ZM292.714 197H294.39V190.097C294.39 188.619 295.555 187.54 297.146 187.54C297.593 187.54 298.055 187.625 298.168 187.653V185.949C297.977 185.935 297.536 185.92 297.288 185.92C295.981 185.92 294.844 186.659 294.447 187.739H294.333V186.091H292.714V197ZM308.252 197H309.9L312.286 188.619H312.456L314.843 197H316.49L319.814 186.091H318.053L315.695 194.415H315.581L313.28 186.091H311.49L309.161 194.443H309.047L306.689 186.091H304.928L308.252 197ZM322.03 197H323.706V186.091H322.03V197ZM322.882 184.273C323.536 184.273 324.076 183.761 324.076 183.136C324.076 182.511 323.536 182 322.882 182C322.229 182 321.689 182.511 321.689 183.136C321.689 183.761 322.229 184.273 322.882 184.273ZM331.521 186.091H329.191V183.477H327.515V186.091H325.867V187.511H327.515V194.33C327.515 196.233 329.049 197.142 330.469 197.142C331.094 197.142 331.492 197.028 331.719 196.943L331.379 195.438C331.237 195.466 331.009 195.523 330.64 195.523C329.901 195.523 329.191 195.295 329.191 193.875V187.511H331.521V186.091ZM335.952 190.438C335.952 188.534 337.167 187.455 338.822 187.455C340.398 187.455 341.35 188.449 341.35 190.182V197H343.026V190.068C343.026 187.263 341.535 185.949 339.305 185.949C337.586 185.949 336.606 186.666 336.094 187.795H335.952V182.455H334.276V197H335.952V190.438ZM351.718 201.091H353.394V195.324H353.536C353.905 195.92 354.615 197.227 356.718 197.227C359.445 197.227 361.348 195.04 361.348 191.574C361.348 188.136 359.445 185.949 356.689 185.949C354.559 185.949 353.905 187.256 353.536 187.824H353.337V186.091H351.718V201.091ZM353.365 191.545C353.365 189.102 354.445 187.455 356.49 187.455C358.621 187.455 359.672 189.244 359.672 191.545C359.672 193.875 358.593 195.722 356.49 195.722C354.473 195.722 353.365 194.017 353.365 191.545ZM363.905 197H365.581V190.097C365.581 188.619 366.746 187.54 368.337 187.54C368.784 187.54 369.246 187.625 369.36 187.653V185.949C369.168 185.935 368.728 185.92 368.479 185.92C367.172 185.92 366.036 186.659 365.638 187.739H365.525V186.091H363.905V197ZM375.446 197.227C378.401 197.227 380.39 194.983 380.39 191.602C380.39 188.193 378.401 185.949 375.446 185.949C372.492 185.949 370.503 188.193 370.503 191.602C370.503 194.983 372.492 197.227 375.446 197.227ZM375.446 195.722C373.202 195.722 372.179 193.79 372.179 191.602C372.179 189.415 373.202 187.455 375.446 187.455C377.691 187.455 378.713 189.415 378.713 191.602C378.713 193.79 377.691 195.722 375.446 195.722ZM387.806 186.091H385.363V184.983C385.363 183.903 385.817 183.335 386.925 183.335C387.408 183.335 387.692 183.449 387.863 183.506L388.346 182.057C388.09 181.943 387.579 181.773 386.755 181.773C385.192 181.773 383.687 182.71 383.687 184.585V186.091H381.925V187.511H383.687V197H385.363V187.511H387.806V186.091ZM394.28 197.227C396.496 197.227 398.115 196.119 398.626 194.472L397.007 194.017C396.581 195.153 395.594 195.722 394.28 195.722C392.312 195.722 390.956 194.45 390.878 192.114H398.797V191.403C398.797 187.341 396.382 185.949 394.109 185.949C391.155 185.949 389.195 188.278 389.195 191.631C389.195 194.983 391.126 197.227 394.28 197.227ZM390.878 190.665C390.991 188.967 392.192 187.455 394.109 187.455C395.928 187.455 397.092 188.818 397.092 190.665H390.878ZM409.074 188.534C408.548 186.986 407.369 185.949 405.21 185.949C402.909 185.949 401.205 187.256 401.205 189.102C401.205 190.608 402.099 191.616 404.102 192.085L405.92 192.511C407.021 192.767 407.54 193.293 407.54 194.045C407.54 194.983 406.545 195.75 404.983 195.75C403.612 195.75 402.753 195.161 402.455 193.989L400.864 194.386C401.254 196.24 402.781 197.227 405.011 197.227C407.547 197.227 409.273 195.842 409.273 193.96C409.273 192.44 408.321 191.482 406.375 191.006L404.756 190.608C403.463 190.288 402.881 189.855 402.881 189.017C402.881 188.08 403.875 187.398 405.21 187.398C406.673 187.398 407.277 188.207 407.568 188.96L409.074 188.534ZM419.523 188.534C418.998 186.986 417.819 185.949 415.659 185.949C413.358 185.949 411.654 187.256 411.654 189.102C411.654 190.608 412.549 191.616 414.551 192.085L416.37 192.511C417.471 192.767 417.989 193.293 417.989 194.045C417.989 194.983 416.995 195.75 415.432 195.75C414.061 195.75 413.202 195.161 412.904 193.989L411.313 194.386C411.703 196.24 413.23 197.227 415.461 197.227C417.996 197.227 419.722 195.842 419.722 193.96C419.722 192.44 418.77 191.482 416.824 191.006L415.205 190.608C413.912 190.288 413.33 189.855 413.33 189.017C413.33 188.08 414.324 187.398 415.659 187.398C417.123 187.398 417.726 188.207 418.017 188.96L419.523 188.534ZM422.245 197H423.921V186.091H422.245V197ZM423.097 184.273C423.751 184.273 424.29 183.761 424.29 183.136C424.29 182.511 423.751 182 423.097 182C422.444 182 421.904 182.511 421.904 183.136C421.904 183.761 422.444 184.273 423.097 184.273ZM431.423 197.227C434.377 197.227 436.366 194.983 436.366 191.602C436.366 188.193 434.377 185.949 431.423 185.949C428.468 185.949 426.48 188.193 426.48 191.602C426.48 194.983 428.468 197.227 431.423 197.227ZM431.423 195.722C429.179 195.722 428.156 193.79 428.156 191.602C428.156 189.415 429.179 187.455 431.423 187.455C433.667 187.455 434.69 189.415 434.69 191.602C434.69 193.79 433.667 195.722 431.423 195.722ZM440.601 190.438C440.601 188.534 441.78 187.455 443.385 187.455C444.94 187.455 445.885 188.47 445.885 190.182V197H447.561V190.068C447.561 187.284 446.077 185.949 443.868 185.949C442.22 185.949 441.197 186.688 440.686 187.795H440.544V186.091H438.925V197H440.601V190.438ZM453.834 197.256C455.738 197.256 456.732 196.233 457.073 195.523H457.158V197H458.834V189.812C458.834 186.347 456.192 185.949 454.8 185.949C453.152 185.949 451.277 186.517 450.425 188.506L452.016 189.074C452.385 188.278 453.259 187.426 454.857 187.426C456.398 187.426 457.158 188.243 457.158 189.642V189.699C457.158 190.509 456.334 190.438 454.346 190.693C452.321 190.956 450.113 191.403 450.113 193.903C450.113 196.034 451.76 197.256 453.834 197.256ZM454.09 195.75C452.755 195.75 451.789 195.153 451.789 193.989C451.789 192.71 452.953 192.312 454.26 192.142C454.971 192.057 456.874 191.858 457.158 191.517V193.051C457.158 194.415 456.078 195.75 454.09 195.75ZM463.57 182.455H461.893V197H463.57V182.455ZM3.53409 241.091H5.21023V235.324H5.35227C5.72159 235.92 6.43182 237.227 8.53409 237.227C11.2614 237.227 13.1648 235.04 13.1648 231.574C13.1648 228.136 11.2614 225.949 8.50568 225.949C6.375 225.949 5.72159 227.256 5.35227 227.824H5.15341V226.091H3.53409V241.091ZM5.18182 231.545C5.18182 229.102 6.26136 227.455 8.30682 227.455C10.4375 227.455 11.4886 229.244 11.4886 231.545C11.4886 233.875 10.4091 235.722 8.30682 235.722C6.28977 235.722 5.18182 234.017 5.18182 231.545ZM17.3977 230.438C17.3977 228.534 18.6122 227.455 20.267 227.455C21.8438 227.455 22.7955 228.449 22.7955 230.182V237H24.4716V230.068C24.4716 227.263 22.9801 225.949 20.75 225.949C19.0312 225.949 18.0511 226.666 17.5398 227.795H17.3977V222.455H15.7216V237H17.3977V230.438ZM31.9698 237.227C34.9244 237.227 36.913 234.983 36.913 231.602C36.913 228.193 34.9244 225.949 31.9698 225.949C29.0153 225.949 27.0266 228.193 27.0266 231.602C27.0266 234.983 29.0153 237.227 31.9698 237.227ZM31.9698 235.722C29.7255 235.722 28.7028 233.79 28.7028 231.602C28.7028 229.415 29.7255 227.455 31.9698 227.455C34.2141 227.455 35.2369 229.415 35.2369 231.602C35.2369 233.79 34.2141 235.722 31.9698 235.722ZM44.2159 226.091H41.8864V223.477H40.2102V226.091H38.5625V227.511H40.2102V234.33C40.2102 236.233 41.7443 237.142 43.1648 237.142C43.7898 237.142 44.1875 237.028 44.4148 236.943L44.0739 235.438C43.9318 235.466 43.7045 235.523 43.3352 235.523C42.5966 235.523 41.8864 235.295 41.8864 233.875V227.511H44.2159V226.091ZM51.0518 237.227C54.0064 237.227 55.995 234.983 55.995 231.602C55.995 228.193 54.0064 225.949 51.0518 225.949C48.0973 225.949 46.1087 228.193 46.1087 231.602C46.1087 234.983 48.0973 237.227 51.0518 237.227ZM51.0518 235.722C48.8075 235.722 47.7848 233.79 47.7848 231.602C47.7848 229.415 48.8075 227.455 51.0518 227.455C53.2962 227.455 54.3189 229.415 54.3189 231.602C54.3189 233.79 53.2962 235.722 51.0518 235.722ZM62.957 241.318C65.5707 241.318 67.6729 240.125 67.6729 237.312V226.091H66.0536V227.824H65.8832C65.5138 227.256 64.832 225.949 62.7013 225.949C59.9457 225.949 58.0423 228.136 58.0423 231.489C58.0423 234.898 60.0309 236.83 62.6729 236.83C64.8036 236.83 65.4854 235.58 65.8548 234.983H65.9968V237.199C65.9968 239.017 64.7184 239.841 62.957 239.841C60.9755 239.841 60.2795 238.797 59.832 238.193L58.4968 239.131C59.1786 240.274 60.521 241.318 62.957 241.318ZM62.9002 235.324C60.7979 235.324 59.7184 233.733 59.7184 231.46C59.7184 229.244 60.7695 227.455 62.9002 227.455C64.9457 227.455 66.0252 229.102 66.0252 231.46C66.0252 233.875 64.9173 235.324 62.9002 235.324ZM70.7411 237H72.4173V230.097C72.4173 228.619 73.582 227.54 75.1729 227.54C75.6204 227.54 76.082 227.625 76.1957 227.653V225.949C76.0039 225.935 75.5636 225.92 75.315 225.92C74.0082 225.92 72.8718 226.659 72.4741 227.739H72.3604V226.091H70.7411V237ZM81.3928 237.256C83.2962 237.256 84.2905 236.233 84.6314 235.523H84.7166V237H86.3928V229.812C86.3928 226.347 83.7507 225.949 82.3587 225.949C80.7109 225.949 78.8359 226.517 77.9837 228.506L79.5746 229.074C79.9439 228.278 80.8175 227.426 82.4155 227.426C83.9567 227.426 84.7166 228.243 84.7166 229.642V229.699C84.7166 230.509 83.8928 230.438 81.9041 230.693C79.88 230.956 77.6712 231.403 77.6712 233.903C77.6712 236.034 79.3189 237.256 81.3928 237.256ZM81.6484 235.75C80.3132 235.75 79.3473 235.153 79.3473 233.989C79.3473 232.71 80.5121 232.312 81.8189 232.142C82.5291 232.057 84.4325 231.858 84.7166 231.517V233.051C84.7166 234.415 83.6371 235.75 81.6484 235.75ZM89.4521 241.091H91.1282V235.324H91.2702C91.6396 235.92 92.3498 237.227 94.4521 237.227C97.1793 237.227 99.0827 235.04 99.0827 231.574C99.0827 228.136 97.1793 225.949 94.4237 225.949C92.293 225.949 91.6396 227.256 91.2702 227.824H91.0714V226.091H89.4521V241.091ZM91.0998 231.545C91.0998 229.102 92.1793 227.455 94.2248 227.455C96.3555 227.455 97.4066 229.244 97.4066 231.545C97.4066 233.875 96.3271 235.722 94.2248 235.722C92.2077 235.722 91.0998 234.017 91.0998 231.545ZM103.316 230.438C103.316 228.534 104.53 227.455 106.185 227.455C107.762 227.455 108.713 228.449 108.713 230.182V237H110.39V230.068C110.39 227.263 108.898 225.949 106.668 225.949C104.949 225.949 103.969 226.666 103.458 227.795H103.316V222.455H101.64V237H103.316V230.438ZM118.03 237.227C120.246 237.227 121.865 236.119 122.376 234.472L120.757 234.017C120.331 235.153 119.344 235.722 118.03 235.722C116.062 235.722 114.706 234.45 114.628 232.114H122.547V231.403C122.547 227.341 120.132 225.949 117.859 225.949C114.905 225.949 112.945 228.278 112.945 231.631C112.945 234.983 114.876 237.227 118.03 237.227ZM114.628 230.665C114.741 228.967 115.942 227.455 117.859 227.455C119.678 227.455 120.842 228.818 120.842 230.665H114.628ZM125.097 237H126.773V230.097C126.773 228.619 127.938 227.54 129.528 227.54C129.976 227.54 130.438 227.625 130.551 227.653V225.949C130.359 225.935 129.919 225.92 129.67 225.92C128.364 225.92 127.227 226.659 126.83 227.739H126.716V226.091H125.097V237ZM138.987 237L140.45 232.881H146.331L147.794 237H149.64L144.299 222.455H142.481L137.14 237H138.987ZM141.004 231.318L143.333 224.756H143.447L145.777 231.318H141.004ZM153.355 222.455H151.679V237H153.355V222.455ZM160.999 237.227C163.214 237.227 164.834 236.119 165.345 234.472L163.726 234.017C163.3 235.153 162.312 235.722 160.999 235.722C159.031 235.722 157.675 234.45 157.597 232.114H165.516V231.403C165.516 227.341 163.101 225.949 160.828 225.949C157.874 225.949 155.913 228.278 155.913 231.631C155.913 234.983 157.845 237.227 160.999 237.227ZM157.597 230.665C157.71 228.967 158.911 227.455 160.828 227.455C162.646 227.455 163.811 228.818 163.811 230.665H157.597ZM169.022 226.091H167.091L170.556 231.545L167.091 237H169.022L171.636 232.767L174.25 237H176.181L172.659 231.545L176.181 226.091H174.25L171.636 230.551L169.022 226.091ZM181.783 237.256C183.687 237.256 184.681 236.233 185.022 235.523H185.107V237H186.783V229.812C186.783 226.347 184.141 225.949 182.749 225.949C181.102 225.949 179.227 226.517 178.374 228.506L179.965 229.074C180.335 228.278 181.208 227.426 182.806 227.426C184.347 227.426 185.107 228.243 185.107 229.642V229.699C185.107 230.509 184.283 230.438 182.295 230.693C180.271 230.956 178.062 231.403 178.062 233.903C178.062 236.034 179.71 237.256 181.783 237.256ZM182.039 235.75C180.704 235.75 179.738 235.153 179.738 233.989C179.738 232.71 180.903 232.312 182.21 232.142C182.92 232.057 184.823 231.858 185.107 231.517V233.051C185.107 234.415 184.028 235.75 182.039 235.75ZM195.695 237H197.456V231.318H200.638C200.766 231.318 200.887 231.318 201.007 231.311L204.076 237H206.121L202.833 230.991C204.686 230.359 205.553 228.847 205.553 226.915C205.553 224.344 204.019 222.455 200.61 222.455H195.695V237ZM197.456 229.727V224.017H200.553C202.911 224.017 203.82 225.168 203.82 226.915C203.82 228.662 202.911 229.727 200.581 229.727H197.456ZM208.261 237H209.937V226.091H208.261V237ZM209.113 224.273C209.766 224.273 210.306 223.761 210.306 223.136C210.306 222.511 209.766 222 209.113 222C208.46 222 207.92 222.511 207.92 223.136C207.92 223.761 208.46 224.273 209.113 224.273ZM220.734 228.534C220.208 226.986 219.029 225.949 216.87 225.949C214.569 225.949 212.865 227.256 212.865 229.102C212.865 230.608 213.76 231.616 215.762 232.085L217.581 232.511C218.681 232.767 219.2 233.293 219.2 234.045C219.2 234.983 218.206 235.75 216.643 235.75C215.272 235.75 214.413 235.161 214.115 233.989L212.524 234.386C212.914 236.24 214.441 237.227 216.672 237.227C219.207 237.227 220.933 235.842 220.933 233.96C220.933 232.44 219.981 231.482 218.035 231.006L216.416 230.608C215.123 230.288 214.541 229.855 214.541 229.017C214.541 228.08 215.535 227.398 216.87 227.398C218.333 227.398 218.937 228.207 219.228 228.96L220.734 228.534ZM228.03 237.227C230.246 237.227 231.865 236.119 232.376 234.472L230.757 234.017C230.331 235.153 229.344 235.722 228.03 235.722C226.062 235.722 224.706 234.45 224.628 232.114H232.547V231.403C232.547 227.341 230.132 225.949 227.859 225.949C224.905 225.949 222.945 228.278 222.945 231.631C222.945 234.983 224.876 237.227 228.03 237.227ZM224.628 230.665C224.741 228.967 225.942 227.455 227.859 227.455C229.678 227.455 230.842 228.818 230.842 230.665H224.628Z" fill="white"/>
<path d="M18.38 36.18H27.56L41.42 76.8L44.9 77.4V81H27.2V77.4L31.7 76.8L29.36 69H13.82L11.48 76.86L16.34 77.4V81H1.04L0.98 77.4L4.58 76.8L18.38 36.18ZM22.52 46.32L21.44 41.64L20.3 46.38L14.96 64.8H28.16L22.52 46.32ZM50.3089 37.14L45.8689 36.36V33.12L56.9689 31.8H57.0889L58.7089 32.94V76.92L63.0889 77.4V81H46.1089V77.4L50.3089 76.86V37.14ZM82.3395 81.66C77.0595 81.66 73.1195 80.12 70.5195 77.04C67.9595 73.92 66.6795 69.68 66.6795 64.32C66.6795 60.72 67.3395 57.6 68.6595 54.96C70.0195 52.32 71.9195 50.3 74.3595 48.9C76.7995 47.5 79.6195 46.8 82.8195 46.8C86.8195 46.8 89.8995 47.86 92.0595 49.98C94.2195 52.06 95.3395 55.04 95.4195 58.92C95.4195 61.56 95.2595 63.52 94.9395 64.8H75.4395C75.5995 68.44 76.4595 71.28 78.0195 73.32C79.5795 75.32 81.7995 76.32 84.6795 76.32C86.2395 76.32 87.8395 76.06 89.4795 75.54C91.1595 75.02 92.4795 74.4 93.4395 73.68L94.9395 76.98C93.8595 78.14 92.0995 79.22 89.6595 80.22C87.2595 81.18 84.8195 81.66 82.3395 81.66ZM87.0195 61.2C87.0995 60.08 87.1395 59.22 87.1395 58.62C87.1395 53.3 85.3595 50.64 81.7995 50.64C79.8395 50.64 78.3195 51.42 77.2395 52.98C76.1595 54.54 75.5595 57.28 75.4395 61.2H87.0195ZM111.188 64.62L101.288 51.84L98.1678 51.12V47.64H115.508V51.12L111.608 51.84L116.348 58.5L117.908 61.02L119.468 58.5L124.328 51.84L120.248 51.12V47.64H133.268V51.12L129.848 51.84L120.368 63.48L130.748 76.92L134.048 77.46V81H116.708V77.46L120.248 76.86L115.628 69.84L113.828 67.2L112.388 69.78L107.468 76.86L112.088 77.46V81H97.6878V77.46L101.528 76.86L111.188 64.62ZM135.876 71.64C135.876 68 137.696 65.26 141.336 63.42C145.016 61.58 149.756 60.64 155.556 60.6V59.22C155.556 57.58 155.376 56.3 155.016 55.38C154.696 54.46 154.076 53.78 153.156 53.34C152.276 52.86 150.976 52.62 149.256 52.62C147.296 52.62 145.536 52.88 143.976 53.4C142.416 53.88 140.796 54.52 139.116 55.32L137.256 51.48C137.856 50.96 138.856 50.34 140.256 49.62C141.696 48.9 143.396 48.28 145.356 47.76C147.316 47.2 149.336 46.92 151.416 46.92C154.496 46.92 156.896 47.32 158.616 48.12C160.376 48.92 161.636 50.2 162.396 51.96C163.156 53.72 163.536 56.08 163.536 59.04V77.4H166.776V80.76C165.976 80.96 164.836 81.16 163.356 81.36C161.876 81.56 160.576 81.66 159.456 81.66C158.096 81.66 157.176 81.46 156.696 81.06C156.256 80.66 156.036 79.84 156.036 78.6V76.98C154.956 78.18 153.556 79.26 151.836 80.22C150.116 81.18 148.176 81.66 146.016 81.66C144.176 81.66 142.476 81.28 140.916 80.52C139.396 79.72 138.176 78.58 137.256 77.1C136.336 75.58 135.876 73.76 135.876 71.64ZM149.856 76.68C150.696 76.68 151.656 76.44 152.736 75.96C153.816 75.44 154.756 74.82 155.556 74.1V64.26C151.956 64.26 149.256 64.88 147.456 66.12C145.696 67.32 144.816 68.88 144.816 70.8C144.816 72.72 145.256 74.18 146.136 75.18C147.056 76.18 148.296 76.68 149.856 76.68ZM184.399 77.4L189.139 76.8V40.92L184.639 40.08V36.42H193.339C194.099 36.42 194.939 36.4 195.859 36.36C196.779 36.32 197.479 36.28 197.959 36.24C200.039 36.08 201.759 36 203.119 36C207.239 36 210.539 36.42 213.019 37.26C215.499 38.1 217.299 39.38 218.419 41.1C219.539 42.82 220.099 45.08 220.099 47.88C220.099 50.64 219.359 53.2 217.879 55.56C216.399 57.92 214.259 59.54 211.459 60.42C213.059 61.1 214.479 62.34 215.719 64.14C216.959 65.94 218.279 68.28 219.679 71.16C220.679 73.12 221.439 74.54 221.959 75.42C222.519 76.26 223.059 76.74 223.579 76.86L225.559 77.46V81H215.359C214.719 81 214.039 80.36 213.319 79.08C212.639 77.76 211.739 75.7 210.619 72.9C209.299 69.62 208.159 67.06 207.199 65.22C206.239 63.38 205.219 62.24 204.139 61.8H197.959V76.8L203.479 77.4V81H184.399V77.4ZM203.479 58.14C205.759 58.14 207.539 57.32 208.819 55.68C210.099 54.04 210.739 51.58 210.739 48.3C210.739 45.38 210.099 43.22 208.819 41.82C207.579 40.42 205.419 39.72 202.339 39.72C201.219 39.72 200.259 39.78 199.459 39.9C198.699 39.98 198.199 40.02 197.959 40.02V58.02C198.439 58.1 199.599 58.14 201.439 58.14H203.479ZM235.141 42.18C233.701 42.18 232.561 41.76 231.721 40.92C230.881 40.08 230.461 39 230.461 37.68C230.461 36.16 230.941 34.9 231.901 33.9C232.861 32.9 234.141 32.4 235.741 32.4C237.341 32.4 238.561 32.84 239.401 33.72C240.241 34.56 240.661 35.62 240.661 36.9C240.661 38.5 240.181 39.78 239.221 40.74C238.261 41.7 236.921 42.18 235.201 42.18H235.141ZM231.961 53.34L227.701 52.2V48.18L238.681 46.86H238.801L240.481 48.06V76.92L244.501 77.4V81H227.761V77.4L231.961 76.86V53.34ZM255.462 76.08C255.782 76.56 256.502 77.02 257.622 77.46C258.782 77.86 259.942 78.06 261.102 78.06C262.982 78.06 264.382 77.68 265.302 76.92C266.262 76.12 266.742 75.08 266.742 73.8C266.742 72.48 266.162 71.42 265.002 70.62C263.842 69.78 261.882 68.76 259.122 67.56L257.442 66.84C254.682 65.68 252.622 64.28 251.262 62.64C249.902 61 249.222 58.88 249.222 56.28C249.222 54.48 249.762 52.88 250.842 51.48C251.922 50.04 253.442 48.92 255.402 48.12C257.362 47.32 259.622 46.92 262.182 46.92C264.062 46.92 265.662 47.04 266.982 47.28C268.342 47.52 269.762 47.84 271.242 48.24C272.042 48.52 272.642 48.68 273.042 48.72V56.58H268.302L266.922 52.02C266.682 51.62 266.142 51.26 265.302 50.94C264.462 50.62 263.502 50.46 262.422 50.46C260.782 50.46 259.462 50.82 258.462 51.54C257.502 52.22 257.022 53.18 257.022 54.42C257.022 55.54 257.362 56.48 258.042 57.24C258.722 57.96 259.462 58.52 260.262 58.92C261.062 59.32 262.542 59.98 264.702 60.9C266.862 61.82 268.642 62.7 270.042 63.54C271.482 64.38 272.662 65.48 273.582 66.84C274.542 68.16 275.022 69.78 275.022 71.7C275.022 74.66 273.862 77.06 271.542 78.9C269.222 80.74 265.882 81.66 261.522 81.66C259.482 81.66 257.642 81.48 256.002 81.12C254.402 80.76 252.542 80.28 250.422 79.68L249.102 79.26V71.34H254.082L255.462 76.08ZM295.035 81.66C289.755 81.66 285.815 80.12 283.215 77.04C280.655 73.92 279.375 69.68 279.375 64.32C279.375 60.72 280.035 57.6 281.355 54.96C282.715 52.32 284.615 50.3 287.055 48.9C289.495 47.5 292.315 46.8 295.515 46.8C299.515 46.8 302.595 47.86 304.755 49.98C306.915 52.06 308.035 55.04 308.115 58.92C308.115 61.56 307.955 63.52 307.635 64.8H288.135C288.295 68.44 289.155 71.28 290.715 73.32C292.275 75.32 294.495 76.32 297.375 76.32C298.935 76.32 300.535 76.06 302.175 75.54C303.855 75.02 305.175 74.4 306.135 73.68L307.635 76.98C306.555 78.14 304.795 79.22 302.355 80.22C299.955 81.18 297.515 81.66 295.035 81.66ZM299.715 61.2C299.795 60.08 299.835 59.22 299.835 58.62C299.835 53.3 298.055 50.64 294.495 50.64C292.535 50.64 291.015 51.42 289.935 52.98C288.855 54.54 288.255 57.28 288.135 61.2H299.715Z" fill="white"/>
</svg>
