<svg width="500" height="50" viewBox="0 0 500 50" fill="none" xmlns="http://www.w3.org/2000/svg">
<path d="M39.7159 21.0909H41.4205C41.3423 18.8963 39.3182 17.2557 36.5057 17.2557C33.7216 17.2557 31.5341 18.875 31.5341 21.3182C31.5341 23.2784 32.9545 24.4432 35.2273 25.0966L37.017 25.608C38.5511 26.0341 39.9148 26.5739 39.9148 28.0227C39.9148 29.6136 38.3807 30.6648 36.3636 30.6648C34.6307 30.6648 33.0966 29.8977 32.9545 28.25H31.1364C31.3068 30.6364 33.2386 32.2557 36.3636 32.2557C39.7159 32.2557 41.6193 30.4091 41.6193 28.0511C41.6193 25.3239 39.0341 24.4432 37.5284 24.0455L36.0511 23.6477C34.9716 23.3636 33.2386 22.7955 33.2386 21.233C33.2386 19.8409 34.517 18.8182 36.4489 18.8182C38.2102 18.8182 39.5455 19.6562 39.7159 21.0909ZM44.288 32H45.9641V27.9162L47.136 26.8295L51.2198 32H53.3505L48.4002 25.75L53.0096 21.0909H50.9357L46.163 25.9489H45.9641V17.4545H44.288V32ZM55.1669 32H56.843V21.0909H55.1669V32ZM56.0192 19.2727C56.6726 19.2727 57.2124 18.7614 57.2124 18.1364C57.2124 17.5114 56.6726 17 56.0192 17C55.3658 17 54.826 17.5114 54.826 18.1364C54.826 18.7614 55.3658 19.2727 56.0192 19.2727ZM61.5891 17.4545H59.913V32H61.5891V17.4545ZM66.3352 17.4545H64.6591V32H66.3352V17.4545ZM77.1325 23.5341C76.6069 21.9858 75.4279 20.9489 73.2688 20.9489C70.9677 20.9489 69.2631 22.2557 69.2631 24.1023C69.2631 25.608 70.158 26.6165 72.1609 27.0852L73.979 27.5114C75.0799 27.767 75.5984 28.2926 75.5984 29.0455C75.5984 29.983 74.604 30.75 73.0415 30.75C71.6708 30.75 70.8114 30.1605 70.5131 28.9886L68.9222 29.3864C69.3129 31.2401 70.8398 32.2273 73.07 32.2273C75.6055 32.2273 77.3313 30.8423 77.3313 28.9602C77.3313 27.4403 76.3796 26.4815 74.4336 26.0057L72.8143 25.608C71.5217 25.2884 70.9393 24.8551 70.9393 24.017C70.9393 23.0795 71.9336 22.3977 73.2688 22.3977C74.7319 22.3977 75.3356 23.2074 75.6268 23.9602L77.1325 23.5341Z" fill="white"/>
<path d="M222.358 17.4545H220.511L225.852 32H227.67L233.011 17.4545H231.165L226.847 29.6989H226.676L222.358 17.4545ZM235.05 32H236.726V21.0909H235.05V32ZM235.902 19.2727C236.555 19.2727 237.095 18.7614 237.095 18.1364C237.095 17.5114 236.555 17 235.902 17C235.249 17 234.709 17.5114 234.709 18.1364C234.709 18.7614 235.249 19.2727 235.902 19.2727ZM243.915 32.2273C246.017 32.2273 246.728 30.9205 247.097 30.3239H247.296V32H248.915V17.4545H247.239V22.8239H247.097C246.728 22.2557 246.074 20.9489 243.944 20.9489C241.188 20.9489 239.284 23.1364 239.284 26.5739C239.284 30.0398 241.188 32.2273 243.915 32.2273ZM244.142 30.7216C242.04 30.7216 240.961 28.875 240.961 26.5455C240.961 24.2443 242.012 22.4545 244.142 22.4545C246.188 22.4545 247.267 24.1023 247.267 26.5455C247.267 29.017 246.159 30.7216 244.142 30.7216ZM256.792 32.2273C259.007 32.2273 260.627 31.1193 261.138 29.4716L259.519 29.017C259.093 30.1534 258.105 30.7216 256.792 30.7216C254.824 30.7216 253.468 29.4503 253.39 27.1136H261.309V26.4034C261.309 22.3409 258.894 20.9489 256.621 20.9489C253.667 20.9489 251.706 23.2784 251.706 26.6307C251.706 29.983 253.638 32.2273 256.792 32.2273ZM253.39 25.6648C253.503 23.9673 254.703 22.4545 256.621 22.4545C258.439 22.4545 259.604 23.8182 259.604 25.6648H253.39ZM268.29 32.2273C271.245 32.2273 273.233 29.983 273.233 26.6023C273.233 23.1932 271.245 20.9489 268.29 20.9489C265.336 20.9489 263.347 23.1932 263.347 26.6023C263.347 29.983 265.336 32.2273 268.29 32.2273ZM268.29 30.7216C266.046 30.7216 265.023 28.7898 265.023 26.6023C265.023 24.4148 266.046 22.4545 268.29 22.4545C270.534 22.4545 271.557 24.4148 271.557 26.6023C271.557 28.7898 270.534 30.7216 268.29 30.7216Z" fill="white"/>
<path d="M396.466 22C395.926 19.017 393.54 17.2557 390.614 17.2557C386.892 17.2557 384.193 20.125 384.193 24.7273C384.193 29.3295 386.892 32.1989 390.614 32.1989C393.54 32.1989 395.926 30.4375 396.466 27.4545H394.705C394.278 29.4716 392.545 30.5511 390.614 30.5511C387.972 30.5511 385.898 28.5057 385.898 24.7273C385.898 20.9489 387.972 18.9034 390.614 18.9034C392.545 18.9034 394.278 19.983 394.705 22H396.466ZM403.517 32.2273C406.471 32.2273 408.46 29.983 408.46 26.6023C408.46 23.1932 406.471 20.9489 403.517 20.9489C400.562 20.9489 398.574 23.1932 398.574 26.6023C398.574 29.983 400.562 32.2273 403.517 32.2273ZM403.517 30.7216C401.272 30.7216 400.25 28.7898 400.25 26.6023C400.25 24.4148 401.272 22.4545 403.517 22.4545C405.761 22.4545 406.784 24.4148 406.784 26.6023C406.784 28.7898 405.761 30.7216 403.517 30.7216ZM412.695 25.4375C412.695 23.5341 413.874 22.4545 415.479 22.4545C417.034 22.4545 417.979 23.4702 417.979 25.1818V32H419.655V25.0682C419.655 22.2841 418.17 20.9489 415.962 20.9489C414.314 20.9489 413.291 21.6875 412.78 22.7955H412.638V21.0909H411.018V32H412.695V25.4375ZM427.462 21.0909H425.132V18.4773H423.456V21.0909H421.809V22.5114H423.456V29.3295C423.456 31.233 424.99 32.142 426.411 32.142C427.036 32.142 427.434 32.0284 427.661 31.9432L427.32 30.4375C427.178 30.4659 426.951 30.5227 426.581 30.5227C425.843 30.5227 425.132 30.2955 425.132 28.875V22.5114H427.462V21.0909ZM433.194 32.2557C435.097 32.2557 436.091 31.233 436.432 30.5227H436.517V32H438.194V24.8125C438.194 21.3466 435.551 20.9489 434.159 20.9489C432.512 20.9489 430.637 21.517 429.784 23.5057L431.375 24.0739C431.745 23.2784 432.618 22.4261 434.216 22.4261C435.757 22.4261 436.517 23.2429 436.517 24.642V24.6989C436.517 25.5085 435.694 25.4375 433.705 25.6932C431.681 25.956 429.472 26.4034 429.472 28.9034C429.472 31.0341 431.12 32.2557 433.194 32.2557ZM433.449 30.75C432.114 30.75 431.148 30.1534 431.148 28.9886C431.148 27.7102 432.313 27.3125 433.62 27.142C434.33 27.0568 436.233 26.858 436.517 26.517V28.0511C436.517 29.4148 435.438 30.75 433.449 30.75ZM445.685 32.2273C448.099 32.2273 449.69 30.75 449.974 28.8182H448.298C447.986 30.0114 446.991 30.7216 445.685 30.7216C443.696 30.7216 442.418 29.0739 442.418 26.5455C442.418 24.0739 443.724 22.4545 445.685 22.4545C447.162 22.4545 448.043 23.3636 448.298 24.358H449.974C449.69 22.3125 447.957 20.9489 445.656 20.9489C442.702 20.9489 440.741 23.2784 440.741 26.6023C440.741 29.8693 442.616 32.2273 445.685 32.2273ZM457.169 21.0909H454.839V18.4773H453.163V21.0909H451.516V22.5114H453.163V29.3295C453.163 31.233 454.697 32.142 456.118 32.142C456.743 32.142 457.141 32.0284 457.368 31.9432L457.027 30.4375C456.885 30.4659 456.658 30.5227 456.288 30.5227C455.55 30.5227 454.839 30.2955 454.839 28.875V22.5114H457.169V21.0909ZM467.222 23.5341C466.697 21.9858 465.518 20.9489 463.359 20.9489C461.058 20.9489 459.353 22.2557 459.353 24.1023C459.353 25.608 460.248 26.6165 462.251 27.0852L464.069 27.5114C465.17 27.767 465.688 28.2926 465.688 29.0455C465.688 29.983 464.694 30.75 463.131 30.75C461.761 30.75 460.901 30.1605 460.603 28.9886L459.012 29.3864C459.403 31.2401 460.93 32.2273 463.16 32.2273C465.695 32.2273 467.421 30.8423 467.421 28.9602C467.421 27.4403 466.469 26.4815 464.523 26.0057L462.904 25.608C461.612 25.2884 461.029 24.8551 461.029 24.017C461.029 23.0795 462.023 22.3977 463.359 22.3977C464.822 22.3977 465.425 23.2074 465.717 23.9602L467.222 23.5341Z" fill="white"/>
<path d="M110.761 32H112.523V26.6875H115.705C119.092 26.6875 120.619 24.6278 120.619 22.0568C120.619 19.4858 119.092 17.4545 115.676 17.4545H110.761V32ZM112.523 25.125V19.017H115.619C117.984 19.017 118.886 20.3097 118.886 22.0568C118.886 23.804 117.984 25.125 115.648 25.125H112.523ZM127.544 32.2273C130.499 32.2273 132.487 29.983 132.487 26.6023C132.487 23.1932 130.499 20.9489 127.544 20.9489C124.589 20.9489 122.601 23.1932 122.601 26.6023C122.601 29.983 124.589 32.2273 127.544 32.2273ZM127.544 30.7216C125.3 30.7216 124.277 28.7898 124.277 26.6023C124.277 24.4148 125.3 22.4545 127.544 22.4545C129.788 22.4545 130.811 24.4148 130.811 26.6023C130.811 28.7898 129.788 30.7216 127.544 30.7216ZM135.046 32H136.722V25.0966C136.722 23.6193 137.887 22.5398 139.478 22.5398C139.925 22.5398 140.387 22.625 140.5 22.6534V20.9489C140.309 20.9347 139.868 20.9205 139.62 20.9205C138.313 20.9205 137.176 21.6591 136.779 22.7386H136.665V21.0909H135.046V32ZM147.915 21.0909H145.586V18.4773H143.909V21.0909H142.262V22.5114H143.909V29.3295C143.909 31.233 145.444 32.142 146.864 32.142C147.489 32.142 147.887 32.0284 148.114 31.9432L147.773 30.4375C147.631 30.4659 147.404 30.5227 147.034 30.5227C146.296 30.5227 145.586 30.2955 145.586 28.875V22.5114H147.915V21.0909ZM155.294 21.0909H152.851V19.983C152.851 18.9034 153.306 18.3352 154.414 18.3352C154.897 18.3352 155.181 18.4489 155.351 18.5057L155.834 17.0568C155.578 16.9432 155.067 16.7727 154.243 16.7727C152.681 16.7727 151.175 17.7102 151.175 19.5852V21.0909H149.414V22.5114H151.175V32H152.851V22.5114H155.294V21.0909ZM161.626 32.2273C164.581 32.2273 166.569 29.983 166.569 26.6023C166.569 23.1932 164.581 20.9489 161.626 20.9489C158.672 20.9489 156.683 23.1932 156.683 26.6023C156.683 29.983 158.672 32.2273 161.626 32.2273ZM161.626 30.7216C159.382 30.7216 158.359 28.7898 158.359 26.6023C158.359 24.4148 159.382 22.4545 161.626 22.4545C163.87 22.4545 164.893 24.4148 164.893 26.6023C164.893 28.7898 163.87 30.7216 161.626 30.7216ZM170.804 17.4545H169.128V32H170.804V17.4545ZM173.874 32H175.55V21.0909H173.874V32ZM174.726 19.2727C175.38 19.2727 175.919 18.7614 175.919 18.1364C175.919 17.5114 175.38 17 174.726 17C174.073 17 173.533 17.5114 173.533 18.1364C173.533 18.7614 174.073 19.2727 174.726 19.2727ZM183.052 32.2273C186.006 32.2273 187.995 29.983 187.995 26.6023C187.995 23.1932 186.006 20.9489 183.052 20.9489C180.097 20.9489 178.109 23.1932 178.109 26.6023C178.109 29.983 180.097 32.2273 183.052 32.2273ZM183.052 30.7216C180.808 30.7216 179.785 28.7898 179.785 26.6023C179.785 24.4148 180.808 22.4545 183.052 22.4545C185.296 22.4545 186.319 24.4148 186.319 26.6023C186.319 28.7898 185.296 30.7216 183.052 30.7216Z" fill="white"/>
<path d="M306.761 32H308.523V26.6875H311.705C315.092 26.6875 316.619 24.6278 316.619 22.0568C316.619 19.4858 315.092 17.4545 311.676 17.4545H306.761V32ZM308.523 25.125V19.017H311.619C313.984 19.017 314.886 20.3097 314.886 22.0568C314.886 23.804 313.984 25.125 311.648 25.125H308.523ZM319.229 32H320.906V25.0966C320.906 23.6193 322.07 22.5398 323.661 22.5398C324.109 22.5398 324.57 22.625 324.684 22.6534V20.9489C324.492 20.9347 324.052 20.9205 323.803 20.9205C322.496 20.9205 321.36 21.6591 320.962 22.7386H320.849V21.0909H319.229V32ZM326.671 32H328.347V21.0909H326.671V32ZM327.523 19.2727C328.176 19.2727 328.716 18.7614 328.716 18.1364C328.716 17.5114 328.176 17 327.523 17C326.87 17 326.33 17.5114 326.33 18.1364C326.33 18.7614 326.87 19.2727 327.523 19.2727ZM335.849 32.2273C338.263 32.2273 339.854 30.75 340.138 28.8182H338.462C338.15 30.0114 337.156 30.7216 335.849 30.7216C333.86 30.7216 332.582 29.0739 332.582 26.5455C332.582 24.0739 333.888 22.4545 335.849 22.4545C337.326 22.4545 338.207 23.3636 338.462 24.358H340.138C339.854 22.3125 338.121 20.9489 335.82 20.9489C332.866 20.9489 330.906 23.2784 330.906 26.6023C330.906 29.8693 332.781 32.2273 335.849 32.2273ZM347.163 32.2273C349.379 32.2273 350.998 31.1193 351.509 29.4716L349.89 29.017C349.464 30.1534 348.477 30.7216 347.163 30.7216C345.195 30.7216 343.839 29.4503 343.761 27.1136H351.68V26.4034C351.68 22.3409 349.265 20.9489 346.992 20.9489C344.038 20.9489 342.077 23.2784 342.077 26.6307C342.077 29.983 344.009 32.2273 347.163 32.2273ZM343.761 25.6648C343.874 23.9673 345.075 22.4545 346.992 22.4545C348.81 22.4545 349.975 23.8182 349.975 25.6648H343.761Z" fill="white"/>
</svg>
