<svg width="895" height="55" viewBox="0 0 895 55" fill="none" xmlns="http://www.w3.org/2000/svg">
<path d="M1 1H219V54H1V1Z" stroke="#BDAE82" stroke-width="2"/>
<path d="M83.5733 35H85.3915L88.6017 23.4091H88.7154L91.9256 35H93.7438L97.7211 20.4545H95.9313L92.8915 32.3011H92.7495L89.6529 20.4545H87.6642L84.5676 32.3011H84.4256L81.3858 20.4545H79.5961L83.5733 35ZM99.6884 35H101.365V24.0909H99.6884V35ZM100.541 22.2727C101.194 22.2727 101.734 21.7614 101.734 21.1364C101.734 20.5114 101.194 20 100.541 20C99.8873 20 99.3475 20.5114 99.3475 21.1364C99.3475 21.7614 99.8873 22.2727 100.541 22.2727ZM106.111 28.4375C106.111 26.5341 107.29 25.4545 108.895 25.4545C110.45 25.4545 111.395 26.4702 111.395 28.1818V35H113.071V28.0682C113.071 25.2841 111.586 23.9489 109.378 23.9489C107.73 23.9489 106.707 24.6875 106.196 25.7955H106.054V24.0909H104.434V35H106.111V28.4375ZM120.878 24.0909H118.548V21.4773H116.872V24.0909H115.225V25.5114H116.872V32.3295C116.872 34.233 118.406 35.142 119.827 35.142C120.452 35.142 120.85 35.0284 121.077 34.9432L120.736 33.4375C120.594 33.4659 120.367 33.5227 119.997 33.5227C119.259 33.5227 118.548 33.2955 118.548 31.875V25.5114H120.878V24.0909ZM127.856 35.2273C130.072 35.2273 131.691 34.1193 132.203 32.4716L130.583 32.017C130.157 33.1534 129.17 33.7216 127.856 33.7216C125.889 33.7216 124.532 32.4503 124.454 30.1136H132.373V29.4034C132.373 25.3409 129.958 23.9489 127.686 23.9489C124.731 23.9489 122.771 26.2784 122.771 29.6307C122.771 32.983 124.703 35.2273 127.856 35.2273ZM124.454 28.6648C124.568 26.9673 125.768 25.4545 127.686 25.4545C129.504 25.4545 130.669 26.8182 130.669 28.6648H124.454ZM134.923 35H136.599V28.0966C136.599 26.6193 137.764 25.5398 139.355 25.5398C139.802 25.5398 140.264 25.625 140.377 25.6534V23.9489C140.186 23.9347 139.745 23.9205 139.497 23.9205C138.19 23.9205 137.053 24.6591 136.656 25.7386H136.542V24.0909H134.923V35Z" fill="#BDAE82"/>
<path d="M226 1H444V54H226V1Z" stroke="#BDAE82" stroke-width="2"/>
<path d="M314.208 24.0909H315.913C315.835 21.8963 313.81 20.2557 310.998 20.2557C308.214 20.2557 306.026 21.875 306.026 24.3182C306.026 26.2784 307.447 27.4432 309.719 28.0966L311.509 28.608C313.043 29.0341 314.407 29.5739 314.407 31.0227C314.407 32.6136 312.873 33.6648 310.856 33.6648C309.123 33.6648 307.589 32.8977 307.447 31.25H305.629C305.799 33.6364 307.731 35.2557 310.856 35.2557C314.208 35.2557 316.112 33.4091 316.112 31.0511C316.112 28.3239 313.526 27.4432 312.021 27.0455L310.543 26.6477C309.464 26.3636 307.731 25.7955 307.731 24.233C307.731 22.8409 309.009 21.8182 310.941 21.8182C312.702 21.8182 314.038 22.6562 314.208 24.0909ZM318.78 39.0909H320.456V33.3239H320.598C320.968 33.9205 321.678 35.2273 323.78 35.2273C326.507 35.2273 328.411 33.0398 328.411 29.5739C328.411 26.1364 326.507 23.9489 323.752 23.9489C321.621 23.9489 320.968 25.2557 320.598 25.8239H320.4V24.0909H318.78V39.0909ZM320.428 29.5455C320.428 27.1023 321.507 25.4545 323.553 25.4545C325.684 25.4545 326.735 27.2443 326.735 29.5455C326.735 31.875 325.655 33.7216 323.553 33.7216C321.536 33.7216 320.428 32.017 320.428 29.5455ZM330.968 35H332.644V28.0966C332.644 26.6193 333.809 25.5398 335.4 25.5398C335.847 25.5398 336.309 25.625 336.422 25.6534V23.9489C336.23 23.9347 335.79 23.9205 335.542 23.9205C334.235 23.9205 333.098 24.6591 332.701 25.7386H332.587V24.0909H330.968V35ZM338.409 35H340.085V24.0909H338.409V35ZM339.261 22.2727C339.915 22.2727 340.455 21.7614 340.455 21.1364C340.455 20.5114 339.915 20 339.261 20C338.608 20 338.068 20.5114 338.068 21.1364C338.068 21.7614 338.608 22.2727 339.261 22.2727ZM344.831 28.4375C344.831 26.5341 346.01 25.4545 347.615 25.4545C349.171 25.4545 350.115 26.4702 350.115 28.1818V35H351.792V28.0682C351.792 25.2841 350.307 23.9489 348.098 23.9489C346.451 23.9489 345.428 24.6875 344.917 25.7955H344.775V24.0909H343.155V35H344.831V28.4375ZM359.258 39.3182C361.871 39.3182 363.974 38.125 363.974 35.3125V24.0909H362.354V25.8239H362.184C361.815 25.2557 361.133 23.9489 359.002 23.9489C356.246 23.9489 354.343 26.1364 354.343 29.4886C354.343 32.8977 356.332 34.8295 358.974 34.8295C361.104 34.8295 361.786 33.5795 362.156 32.983H362.298V35.1989C362.298 37.017 361.019 37.8409 359.258 37.8409C357.276 37.8409 356.58 36.7969 356.133 36.1932L354.798 37.1307C355.479 38.2741 356.822 39.3182 359.258 39.3182ZM359.201 33.3239C357.099 33.3239 356.019 31.733 356.019 29.4602C356.019 27.2443 357.07 25.4545 359.201 25.4545C361.246 25.4545 362.326 27.1023 362.326 29.4602C362.326 31.875 361.218 33.3239 359.201 33.3239Z" fill="#BDAE82"/>
<path d="M451 1H669V54H451V1Z" stroke="#BDAE82" stroke-width="2"/>
<path d="M530.105 24.0909H531.809C531.731 21.8963 529.707 20.2557 526.894 20.2557C524.11 20.2557 521.923 21.875 521.923 24.3182C521.923 26.2784 523.343 27.4432 525.616 28.0966L527.406 28.608C528.94 29.0341 530.303 29.5739 530.303 31.0227C530.303 32.6136 528.769 33.6648 526.752 33.6648C525.019 33.6648 523.485 32.8977 523.343 31.25H521.525C521.695 33.6364 523.627 35.2557 526.752 35.2557C530.105 35.2557 532.008 33.4091 532.008 31.0511C532.008 28.3239 529.423 27.4432 527.917 27.0455L526.44 26.6477C525.36 26.3636 523.627 25.7955 523.627 24.233C523.627 22.8409 524.906 21.8182 526.838 21.8182C528.599 21.8182 529.934 22.6562 530.105 24.0909ZM541.552 30.5398C541.552 32.5852 539.989 33.5227 538.739 33.5227C537.347 33.5227 536.353 32.5 536.353 30.9091V24.0909H534.677V31.0227C534.677 33.8068 536.154 35.142 538.199 35.142C539.847 35.142 540.927 34.2614 541.438 33.1534H541.552V35H543.228V24.0909H541.552V30.5398ZM546.298 35H547.974V28.1818C547.974 26.5838 549.139 25.4545 550.445 25.4545C551.717 25.4545 552.605 26.2855 552.605 27.5284V35H554.309V27.8977C554.309 26.4915 555.19 25.4545 556.724 25.4545C557.917 25.4545 558.94 26.0866 558.94 27.6989V35H560.616V27.6989C560.616 25.1349 559.238 23.9489 557.292 23.9489C555.73 23.9489 554.586 24.6662 554.025 25.7955H553.911C553.372 24.6307 552.42 23.9489 550.985 23.9489C549.565 23.9489 548.514 24.6307 548.059 25.7955H547.917V24.0909H546.298V35ZM563.681 35H565.357V28.1818C565.357 26.5838 566.521 25.4545 567.828 25.4545C569.1 25.4545 569.987 26.2855 569.987 27.5284V35H571.692V27.8977C571.692 26.4915 572.573 25.4545 574.107 25.4545C575.3 25.4545 576.323 26.0866 576.323 27.6989V35H577.999V27.6989C577.999 25.1349 576.621 23.9489 574.675 23.9489C573.112 23.9489 571.969 24.6662 571.408 25.7955H571.294C570.754 24.6307 569.803 23.9489 568.368 23.9489C566.948 23.9489 565.896 24.6307 565.442 25.7955H565.3V24.0909H563.681V35ZM585.637 35.2273C587.853 35.2273 589.472 34.1193 589.984 32.4716L588.365 32.017C587.938 33.1534 586.951 33.7216 585.637 33.7216C583.67 33.7216 582.313 32.4503 582.235 30.1136H590.154V29.4034C590.154 25.3409 587.74 23.9489 585.467 23.9489C582.512 23.9489 580.552 26.2784 580.552 29.6307C580.552 32.983 582.484 35.2273 585.637 35.2273ZM582.235 28.6648C582.349 26.9673 583.549 25.4545 585.467 25.4545C587.285 25.4545 588.45 26.8182 588.45 28.6648H582.235ZM592.704 35H594.38V28.0966C594.38 26.6193 595.545 25.5398 597.136 25.5398C597.583 25.5398 598.045 25.625 598.159 25.6534V23.9489C597.967 23.9347 597.526 23.9205 597.278 23.9205C595.971 23.9205 594.835 24.6591 594.437 25.7386H594.323V24.0909H592.704V35Z" fill="#BDAE82"/>
<path d="M676 1H894V54H676V1Z" fill="#BDAE82" stroke="#BDAE82" stroke-width="2"/>
<path d="M750.805 35L752.268 30.8807H758.149L759.612 35H761.459L756.118 20.4545H754.3L748.959 35H750.805ZM752.822 29.3182L755.152 22.7557H755.265L757.595 29.3182H752.822ZM770.372 30.5398C770.372 32.5852 768.809 33.5227 767.559 33.5227C766.167 33.5227 765.173 32.5 765.173 30.9091V24.0909H763.497V31.0227C763.497 33.8068 764.974 35.142 767.02 35.142C768.667 35.142 769.747 34.2614 770.258 33.1534H770.372V35H772.048V24.0909H770.372V30.5398ZM779.862 24.0909H777.533V21.4773H775.857V24.0909H774.209V25.5114H775.857V32.3295C775.857 34.233 777.391 35.142 778.811 35.142C779.436 35.142 779.834 35.0284 780.061 34.9432L779.72 33.4375C779.578 33.4659 779.351 33.5227 778.982 33.5227C778.243 33.5227 777.533 33.2955 777.533 31.875V25.5114H779.862V24.0909ZM789.259 30.5398C789.259 32.5852 787.696 33.5227 786.446 33.5227C785.054 33.5227 784.06 32.5 784.06 30.9091V24.0909H782.384V31.0227C782.384 33.8068 783.861 35.142 785.906 35.142C787.554 35.142 788.634 34.2614 789.145 33.1534H789.259V35H790.935V24.0909H789.259V30.5398ZM794.005 35H795.681V28.1818C795.681 26.5838 796.846 25.4545 798.153 25.4545C799.424 25.4545 800.312 26.2855 800.312 27.5284V35H802.016V27.8977C802.016 26.4915 802.897 25.4545 804.431 25.4545C805.624 25.4545 806.647 26.0866 806.647 27.6989V35H808.323V27.6989C808.323 25.1349 806.945 23.9489 804.999 23.9489C803.437 23.9489 802.293 24.6662 801.732 25.7955H801.618C801.079 24.6307 800.127 23.9489 798.692 23.9489C797.272 23.9489 796.221 24.6307 795.766 25.7955H795.624V24.0909H794.005V35ZM813.064 28.4375C813.064 26.5341 814.243 25.4545 815.848 25.4545C817.403 25.4545 818.348 26.4702 818.348 28.1818V35H820.024V28.0682C820.024 25.2841 818.54 23.9489 816.331 23.9489C814.683 23.9489 813.66 24.6875 813.149 25.7955H813.007V24.0909H811.388V35H813.064V28.4375Z" fill="black"/>
</svg>
