<svg width="700" height="80" viewBox="0 0 700 80" fill="none" xmlns="http://www.w3.org/2000/svg">
<path d="M0 39H700V41H0V39Z" fill="#BDAE82"/>
<path d="M238 0H459V80H238V0Z" fill="black"/>
<path d="M262.83 27.28L259.83 26.76V24.28H265.87C266.43 24.28 267.297 24.2533 268.47 24.2C270.017 24.0933 271.417 24.04 272.67 24.04C275.444 24.04 277.63 24.3867 279.23 25.08C280.857 25.7467 282.004 26.72 282.67 28C283.364 29.2533 283.71 30.8533 283.71 32.8C283.71 36.16 282.657 38.7733 280.55 40.64C278.47 42.5067 275.577 43.44 271.87 43.44C270.404 43.44 269.35 43.4 268.71 43.32V51.2L274.07 51.6V54H259.67V51.6L262.83 51.2V27.28ZM268.67 40.76C269.284 40.8933 270.324 40.96 271.79 40.96C273.577 40.96 275.004 40.3467 276.07 39.12C277.164 37.8667 277.71 35.8 277.71 32.92C277.71 30.68 277.217 29.0533 276.23 28.04C275.27 27 273.79 26.48 271.79 26.48C271.044 26.48 270.27 26.5333 269.47 26.64C269.097 26.6933 268.83 26.72 268.67 26.72V40.76ZM286.316 42.92C286.316 40.4133 286.809 38.28 287.796 36.52C288.809 34.76 290.156 33.44 291.836 32.56C293.516 31.6533 295.342 31.2 297.316 31.2C300.676 31.2 303.262 32.24 305.076 34.32C306.916 36.3733 307.836 39.1733 307.836 42.72C307.836 45.2533 307.329 47.4133 306.316 49.2C305.329 50.96 303.996 52.28 302.316 53.16C300.662 54.0133 298.836 54.44 296.836 54.44C293.502 54.44 290.916 53.4133 289.076 51.36C287.236 49.28 286.316 46.4667 286.316 42.92ZM297.156 51.84C300.169 51.84 301.676 48.9333 301.676 43.12C301.676 40.08 301.316 37.7733 300.596 36.2C299.876 34.6 298.702 33.8 297.076 33.8C293.982 33.8 292.436 36.7067 292.436 42.52C292.436 45.56 292.809 47.88 293.556 49.48C294.329 51.0533 295.529 51.84 297.156 51.84ZM311.472 51.64L314.112 51.32V35.56L311.552 34.84V32.08L317.752 31.24H317.872L318.872 32.04V32.92L318.752 36.16H318.872C319.059 35.6267 319.499 34.9733 320.192 34.2C320.885 33.4 321.752 32.7067 322.792 32.12C323.859 31.5067 325.005 31.2 326.232 31.2C326.819 31.2 327.325 31.28 327.752 31.44V37.44C326.952 36.88 325.979 36.6 324.832 36.6C322.885 36.6 321.192 37.12 319.752 38.16V51.28L324.392 51.64V54H311.472V51.64ZM337.02 54.36C335.34 54.36 334.1 53.9733 333.3 53.2C332.5 52.4267 332.1 51.2 332.1 49.52V34.84H329.5V32.76C329.713 32.68 330.1 32.5467 330.66 32.36C331.22 32.1467 331.647 31.9733 331.94 31.84C332.393 31.4933 332.78 30.8933 333.1 30.04C333.34 29.48 333.78 28.0933 334.42 25.88H337.62L337.78 31.76H343.9V34.84H337.82V46.08C337.82 47.5733 337.86 48.6267 337.94 49.24C338.02 49.8533 338.193 50.2533 338.46 50.44C338.727 50.6 339.193 50.68 339.86 50.68C340.527 50.68 341.22 50.6133 341.94 50.48C342.66 50.32 343.26 50.1333 343.74 49.92L344.5 52.16C343.753 52.72 342.66 53.2267 341.22 53.68C339.78 54.1333 338.38 54.36 337.02 54.36ZM349.388 34.88H346.028V32.64L349.388 31.84V30.08C349.388 28.3467 349.841 26.76 350.748 25.32C351.681 23.88 352.921 22.7467 354.468 21.92C356.015 21.0667 357.655 20.64 359.388 20.64C360.295 20.64 361.148 20.7733 361.948 21.04V26.16C361.681 25.8933 361.148 25.6267 360.348 25.36C359.575 25.0933 358.761 24.96 357.908 24.96C356.868 24.96 356.121 25.2267 355.668 25.76C355.241 26.2667 355.028 27.1467 355.028 28.4V31.8H360.108V34.88H355.028V51.28L359.228 51.6V54H346.228V51.6L349.388 51.24V34.88ZM362.956 42.92C362.956 40.4133 363.45 38.28 364.436 36.52C365.45 34.76 366.796 33.44 368.476 32.56C370.156 31.6533 371.983 31.2 373.956 31.2C377.316 31.2 379.903 32.24 381.716 34.32C383.556 36.3733 384.476 39.1733 384.476 42.72C384.476 45.2533 383.97 47.4133 382.956 49.2C381.97 50.96 380.636 52.28 378.956 53.16C377.303 54.0133 375.476 54.44 373.476 54.44C370.143 54.44 367.556 53.4133 365.716 51.36C363.876 49.28 362.956 46.4667 362.956 42.92ZM373.796 51.84C376.81 51.84 378.316 48.9333 378.316 43.12C378.316 40.08 377.956 37.7733 377.236 36.2C376.516 34.6 375.343 33.8 373.716 33.8C370.623 33.8 369.076 36.7067 369.076 42.52C369.076 45.56 369.45 47.88 370.196 49.48C370.97 51.0533 372.17 51.84 373.796 51.84ZM390.433 24.76L387.473 24.24V22.08L394.873 21.2H394.953L396.033 21.96V51.28L398.953 51.6V54H387.632V51.6L390.433 51.24V24.76ZM406.466 28.12C405.506 28.12 404.746 27.84 404.186 27.28C403.626 26.72 403.346 26 403.346 25.12C403.346 24.1067 403.666 23.2667 404.306 22.6C404.946 21.9333 405.8 21.6 406.866 21.6C407.933 21.6 408.746 21.8933 409.306 22.48C409.866 23.04 410.146 23.7467 410.146 24.6C410.146 25.6667 409.826 26.52 409.186 27.16C408.546 27.8 407.653 28.12 406.506 28.12H406.466ZM404.346 35.56L401.506 34.8V32.12L408.826 31.24H408.906L410.026 32.04V51.28L412.706 51.6V54H401.546V51.6L404.346 51.24V35.56ZM415.573 42.92C415.573 40.4133 416.067 38.28 417.053 36.52C418.067 34.76 419.413 33.44 421.093 32.56C422.773 31.6533 424.6 31.2 426.573 31.2C429.933 31.2 432.52 32.24 434.333 34.32C436.173 36.3733 437.093 39.1733 437.093 42.72C437.093 45.2533 436.587 47.4133 435.573 49.2C434.587 50.96 433.253 52.28 431.573 53.16C429.92 54.0133 428.093 54.44 426.093 54.44C422.76 54.44 420.173 53.4133 418.333 51.36C416.493 49.28 415.573 46.4667 415.573 42.92ZM426.413 51.84C429.427 51.84 430.933 48.9333 430.933 43.12C430.933 40.08 430.573 37.7733 429.853 36.2C429.133 34.6 427.96 33.8 426.333 33.8C423.24 33.8 421.693 36.7067 421.693 42.52C421.693 45.56 422.067 47.88 422.813 49.48C423.587 51.0533 424.787 51.84 426.413 51.84Z" fill="#BDAE82"/>
</svg>
