<svg width="320" height="240" viewBox="0 0 320 240" fill="none" xmlns="http://www.w3.org/2000/svg">
<path d="M120.522 127H123.597V121.844H125.842L128.597 127H131.992L128.903 121.347C130.558 120.636 131.474 119.195 131.474 117.206C131.474 114.315 129.563 112.455 126.261 112.455H120.522V127ZM123.597 119.372V114.969H125.671C127.447 114.969 128.306 115.757 128.306 117.206C128.306 118.648 127.447 119.372 125.685 119.372H123.597ZM138.386 127.213C141.085 127.213 142.903 125.899 143.329 123.875L140.531 123.69C140.225 124.521 139.444 124.955 138.436 124.955C136.923 124.955 135.964 123.953 135.964 122.327V122.32H143.393V121.489C143.393 117.781 141.149 115.949 138.265 115.949C135.055 115.949 132.974 118.229 132.974 121.595C132.974 125.054 135.027 127.213 138.386 127.213ZM135.964 120.445C136.028 119.202 136.973 118.207 138.315 118.207C139.629 118.207 140.538 119.145 140.545 120.445H135.964ZM151.17 116.091H149.118V113.477H146.092V116.091H144.6V118.364H146.092V124.045C146.078 126.183 147.534 127.241 149.728 127.149C150.51 127.121 151.064 126.964 151.369 126.865L150.893 124.614C150.744 124.642 150.424 124.713 150.14 124.713C149.537 124.713 149.118 124.486 149.118 123.648V118.364H151.17V116.091ZM157.953 127.213C161.262 127.213 163.322 124.947 163.322 121.588C163.322 118.207 161.262 115.949 157.953 115.949C154.643 115.949 152.583 118.207 152.583 121.588C152.583 124.947 154.643 127.213 157.953 127.213ZM157.967 124.869C156.44 124.869 155.659 123.47 155.659 121.567C155.659 119.663 156.44 118.257 157.967 118.257C159.466 118.257 160.247 119.663 160.247 121.567C160.247 123.47 159.466 124.869 157.967 124.869ZM172.285 122.355C172.292 123.818 171.291 124.585 170.204 124.585C169.061 124.585 168.322 123.783 168.315 122.497V116.091H165.289V123.037C165.297 125.587 166.788 127.142 168.983 127.142C170.623 127.142 171.802 126.297 172.292 125.018H172.406V127H175.311V116.091H172.285V122.355ZM182.66 127.213C185.565 127.213 187.39 125.509 187.532 123.001H184.677C184.499 124.166 183.732 124.82 182.695 124.82C181.282 124.82 180.366 123.634 180.366 121.545C180.366 119.486 181.289 118.307 182.695 118.307C183.803 118.307 184.513 119.038 184.677 120.125H187.532C187.404 117.604 185.494 115.949 182.646 115.949C179.336 115.949 177.29 118.243 177.29 121.588C177.29 124.905 179.3 127.213 182.66 127.213ZM192.495 120.693C192.502 119.287 193.361 118.463 194.597 118.463C195.826 118.463 196.55 119.251 196.543 120.594V127H199.569V120.054C199.576 117.497 198.07 115.949 195.797 115.949C194.142 115.949 193.034 116.73 192.537 118.016H192.409V112.455H189.469V127H192.495V120.693Z" fill="white"/>
<path d="M41.4156 171.909H39.8303V185H41.4156V171.909ZM56.4065 177.381C55.9335 175.987 54.8724 175.054 52.9292 175.054C50.8582 175.054 49.3241 176.23 49.3241 177.892C49.3241 179.247 50.1295 180.155 51.9321 180.577L53.5684 180.96C54.5592 181.19 55.0258 181.663 55.0258 182.341C55.0258 183.185 54.1309 183.875 52.7247 183.875C51.491 183.875 50.7176 183.344 50.4491 182.29L49.0173 182.648C49.3689 184.316 50.7432 185.205 52.7503 185.205C55.0322 185.205 56.5855 183.958 56.5855 182.264C56.5855 180.896 55.729 180.033 53.9775 179.605L52.5202 179.247C51.3568 178.96 50.8327 178.57 50.8327 177.815C50.8327 176.972 51.7275 176.358 52.9292 176.358C54.246 176.358 54.7893 177.087 55.0514 177.764L56.4065 177.381ZM63.1262 175.182H61.0296V172.83H59.521V175.182H58.0381V176.46H59.521V182.597C59.521 184.31 60.9017 185.128 62.1801 185.128C62.7426 185.128 63.1006 185.026 63.3051 184.949L62.9983 183.594C62.8705 183.619 62.6659 183.67 62.3335 183.67C61.6688 183.67 61.0296 183.466 61.0296 182.188V176.46H63.1262V175.182ZM65.3953 185H66.9039V178.787C66.9039 177.457 67.9521 176.486 69.384 176.486C69.7867 176.486 70.2021 176.562 70.3044 176.588V175.054C70.1318 175.041 69.7355 175.028 69.5118 175.028C68.3357 175.028 67.3129 175.693 66.955 176.665H66.8527V175.182H65.3953V185ZM72.0926 185H73.6011V175.182H72.0926V185ZM72.8596 173.545C73.4477 173.545 73.9335 173.085 73.9335 172.523C73.9335 171.96 73.4477 171.5 72.8596 171.5C72.2716 171.5 71.7858 171.96 71.7858 172.523C71.7858 173.085 72.2716 173.545 72.8596 173.545ZM84.3925 175.182H82.7561L80.0459 183.006H79.9436L77.2334 175.182H75.597L79.2277 185H80.7618L84.3925 175.182ZM90.1485 185.205C92.1428 185.205 93.6002 184.207 94.0605 182.724L92.6031 182.315C92.2195 183.338 91.3311 183.849 90.1485 183.849C88.3779 183.849 87.157 182.705 87.0867 180.602H94.2139V179.963C94.2139 176.307 92.0406 175.054 89.9951 175.054C87.336 175.054 85.5718 177.151 85.5718 180.168C85.5718 183.185 87.3105 185.205 90.1485 185.205ZM87.0867 179.298C87.189 177.771 88.2693 176.409 89.9951 176.409C91.6315 176.409 92.6798 177.636 92.6798 179.298H87.0867ZM105.841 175.182H103.744V172.83H102.236V175.182H100.753V176.46H102.236V182.597C102.236 184.31 103.617 185.128 104.895 185.128C105.457 185.128 105.815 185.026 106.02 184.949L105.713 183.594C105.585 183.619 105.381 183.67 105.048 183.67C104.384 183.67 103.744 183.466 103.744 182.188V176.46H105.841V175.182ZM111.993 185.205C114.652 185.205 116.442 183.185 116.442 180.142C116.442 177.074 114.652 175.054 111.993 175.054C109.334 175.054 107.544 177.074 107.544 180.142C107.544 183.185 109.334 185.205 111.993 185.205ZM111.993 183.849C109.973 183.849 109.053 182.111 109.053 180.142C109.053 178.173 109.973 176.409 111.993 176.409C114.013 176.409 114.934 178.173 114.934 180.142C114.934 182.111 114.013 183.849 111.993 183.849ZM123.807 185H125.316V178.864C125.316 177.425 126.364 176.409 127.54 176.409C128.685 176.409 129.484 177.157 129.484 178.276V185H131.018V178.608C131.018 177.342 131.81 176.409 133.191 176.409C134.265 176.409 135.185 176.978 135.185 178.429V185H136.694V178.429C136.694 176.121 135.454 175.054 133.702 175.054C132.296 175.054 131.267 175.7 130.762 176.716H130.66C130.174 175.668 129.317 175.054 128.026 175.054C126.748 175.054 125.802 175.668 125.393 176.716H125.265V175.182H123.807V185ZM142.341 185.23C144.054 185.23 144.949 184.31 145.256 183.67H145.333V185H146.841V178.531C146.841 175.412 144.463 175.054 143.21 175.054C141.728 175.054 140.04 175.565 139.273 177.355L140.705 177.866C141.037 177.151 141.823 176.384 143.262 176.384C144.649 176.384 145.333 177.119 145.333 178.378V178.429C145.333 179.158 144.591 179.094 142.801 179.324C140.98 179.56 138.992 179.963 138.992 182.213C138.992 184.131 140.475 185.23 142.341 185.23ZM142.571 183.875C141.37 183.875 140.5 183.338 140.5 182.29C140.5 181.139 141.549 180.781 142.725 180.628C143.364 180.551 145.077 180.372 145.333 180.065V181.446C145.333 182.673 144.361 183.875 142.571 183.875ZM149.595 185H151.103V181.325L152.158 180.347L155.833 185H157.751L153.296 179.375L157.444 175.182H155.578L151.282 179.554H151.103V171.909H149.595V185ZM163.098 185.205C165.092 185.205 166.549 184.207 167.01 182.724L165.552 182.315C165.169 183.338 164.28 183.849 163.098 183.849C161.327 183.849 160.106 182.705 160.036 180.602H167.163V179.963C167.163 176.307 164.99 175.054 162.944 175.054C160.285 175.054 158.521 177.151 158.521 180.168C158.521 183.185 160.26 185.205 163.098 185.205ZM160.036 179.298C160.138 177.771 161.218 176.409 162.944 176.409C164.581 176.409 165.629 177.636 165.629 179.298H160.036ZM174.52 188.682H176.029V183.491H176.157C176.489 184.028 177.128 185.205 179.02 185.205C181.475 185.205 183.188 183.236 183.188 180.116C183.188 177.023 181.475 175.054 178.995 175.054C177.077 175.054 176.489 176.23 176.157 176.741H175.978V175.182H174.52V188.682ZM176.003 180.091C176.003 177.892 176.975 176.409 178.816 176.409C180.733 176.409 181.679 178.02 181.679 180.091C181.679 182.188 180.708 183.849 178.816 183.849C177 183.849 176.003 182.315 176.003 180.091ZM186.998 179.094C186.998 177.381 188.091 176.409 189.58 176.409C190.999 176.409 191.856 177.304 191.856 178.864V185H193.364V178.761C193.364 176.237 192.022 175.054 190.015 175.054C188.468 175.054 187.586 175.7 187.125 176.716H186.998V171.909H185.489V185H186.998V179.094ZM200.112 185.205C202.772 185.205 204.561 183.185 204.561 180.142C204.561 177.074 202.772 175.054 200.112 175.054C197.453 175.054 195.664 177.074 195.664 180.142C195.664 183.185 197.453 185.205 200.112 185.205ZM200.112 183.849C198.093 183.849 197.172 182.111 197.172 180.142C197.172 178.173 198.093 176.409 200.112 176.409C202.132 176.409 203.053 178.173 203.053 180.142C203.053 182.111 202.132 183.849 200.112 183.849ZM211.134 175.182H209.037V172.83H207.529V175.182H206.046V176.46H207.529V182.597C207.529 184.31 208.91 185.128 210.188 185.128C210.75 185.128 211.108 185.026 211.313 184.949L211.006 183.594C210.878 183.619 210.674 183.67 210.341 183.67C209.677 183.67 209.037 183.466 209.037 182.188V176.46H211.134V175.182ZM217.286 185.205C219.945 185.205 221.735 183.185 221.735 180.142C221.735 177.074 219.945 175.054 217.286 175.054C214.627 175.054 212.837 177.074 212.837 180.142C212.837 183.185 214.627 185.205 217.286 185.205ZM217.286 183.849C215.266 183.849 214.346 182.111 214.346 180.142C214.346 178.173 215.266 176.409 217.286 176.409C219.306 176.409 220.227 178.173 220.227 180.142C220.227 182.111 219.306 183.849 217.286 183.849ZM228.001 188.886C230.353 188.886 232.245 187.812 232.245 185.281V175.182H230.788V176.741H230.634C230.302 176.23 229.688 175.054 227.771 175.054C225.291 175.054 223.578 177.023 223.578 180.04C223.578 183.108 225.367 184.847 227.745 184.847C229.663 184.847 230.277 183.722 230.609 183.185H230.737V185.179C230.737 186.815 229.586 187.557 228.001 187.557C226.218 187.557 225.591 186.617 225.188 186.074L223.987 186.918C224.6 187.947 225.809 188.886 228.001 188.886ZM227.95 183.491C226.058 183.491 225.086 182.06 225.086 180.014C225.086 178.02 226.032 176.409 227.95 176.409C229.791 176.409 230.762 177.892 230.762 180.014C230.762 182.188 229.765 183.491 227.95 183.491ZM235.007 185H236.515V178.787C236.515 177.457 237.563 176.486 238.995 176.486C239.398 176.486 239.813 176.562 239.916 176.588V175.054C239.743 175.041 239.347 175.028 239.123 175.028C237.947 175.028 236.924 175.693 236.566 176.665H236.464V175.182H235.007V185ZM244.593 185.23C246.306 185.23 247.201 184.31 247.508 183.67H247.585V185H249.093V178.531C249.093 175.412 246.715 175.054 245.462 175.054C243.979 175.054 242.292 175.565 241.525 177.355L242.957 177.866C243.289 177.151 244.075 176.384 245.514 176.384C246.901 176.384 247.585 177.119 247.585 178.378V178.429C247.585 179.158 246.843 179.094 245.053 179.324C243.232 179.56 241.244 179.963 241.244 182.213C241.244 184.131 242.727 185.23 244.593 185.23ZM244.823 183.875C243.622 183.875 242.752 183.338 242.752 182.29C242.752 181.139 243.801 180.781 244.977 180.628C245.616 180.551 247.329 180.372 247.585 180.065V181.446C247.585 182.673 246.613 183.875 244.823 183.875ZM251.847 188.682H253.355V183.491H253.483C253.815 184.028 254.454 185.205 256.347 185.205C258.801 185.205 260.514 183.236 260.514 180.116C260.514 177.023 258.801 175.054 256.321 175.054C254.403 175.054 253.815 176.23 253.483 176.741H253.304V175.182H251.847V188.682ZM253.329 180.091C253.329 177.892 254.301 176.409 256.142 176.409C258.06 176.409 259.006 178.02 259.006 180.091C259.006 182.188 258.034 183.849 256.142 183.849C254.327 183.849 253.329 182.315 253.329 180.091ZM264.324 179.094C264.324 177.381 265.417 176.409 266.906 176.409C268.325 176.409 269.182 177.304 269.182 178.864V185H270.69V178.761C270.69 176.237 269.348 175.054 267.341 175.054C265.794 175.054 264.912 175.7 264.452 176.716H264.324V171.909H262.815V185H264.324V179.094ZM274.07 188.682C275.432 188.682 276.39 187.96 276.959 186.432L281.14 175.207L279.491 175.182L276.78 183.006H276.678L273.968 175.182H272.331L275.962 185.051L275.681 185.818C275.131 187.314 274.454 187.455 273.354 187.173L272.971 188.503C273.124 188.58 273.559 188.682 274.07 188.682ZM106.495 213.381C106.022 211.987 104.961 211.054 103.018 211.054C100.947 211.054 99.413 212.23 99.413 213.892C99.413 215.247 100.218 216.155 102.021 216.577L103.657 216.96C104.648 217.19 105.115 217.663 105.115 218.341C105.115 219.185 104.22 219.875 102.814 219.875C101.58 219.875 100.806 219.344 100.538 218.29L99.1062 218.648C99.4577 220.316 100.832 221.205 102.839 221.205C105.121 221.205 106.674 219.958 106.674 218.264C106.674 216.896 105.818 216.033 104.066 215.605L102.609 215.247C101.446 214.96 100.922 214.57 100.922 213.815C100.922 212.972 101.816 212.358 103.018 212.358C104.335 212.358 104.878 213.087 105.14 213.764L106.495 213.381ZM115.133 216.986C115.133 218.827 113.726 219.67 112.601 219.67C111.349 219.67 110.454 218.75 110.454 217.318V211.182H108.945V217.42C108.945 219.926 110.275 221.128 112.116 221.128C113.599 221.128 114.57 220.335 115.03 219.338H115.133V221H116.641V211.182H115.133V216.986ZM119.404 221H120.913V214.787C120.913 213.457 121.961 212.486 123.393 212.486C123.795 212.486 124.211 212.562 124.313 212.588V211.054C124.141 211.041 123.744 211.028 123.521 211.028C122.344 211.028 121.322 211.693 120.964 212.665H120.862V211.182H119.404V221ZM126.101 224.682H127.61V219.491H127.738C128.07 220.028 128.709 221.205 130.601 221.205C133.056 221.205 134.769 219.236 134.769 216.116C134.769 213.023 133.056 211.054 130.576 211.054C128.658 211.054 128.07 212.23 127.738 212.741H127.559V211.182H126.101V224.682ZM127.584 216.091C127.584 213.892 128.556 212.409 130.397 212.409C132.314 212.409 133.26 214.02 133.26 216.091C133.26 218.188 132.289 219.849 130.397 219.849C128.581 219.849 127.584 218.315 127.584 216.091ZM139.959 221.23C141.672 221.23 142.567 220.31 142.874 219.67H142.951V221H144.459V214.531C144.459 211.412 142.081 211.054 140.829 211.054C139.346 211.054 137.658 211.565 136.891 213.355L138.323 213.866C138.655 213.151 139.442 212.384 140.88 212.384C142.267 212.384 142.951 213.119 142.951 214.378V214.429C142.951 215.158 142.209 215.094 140.42 215.324C138.598 215.56 136.61 215.963 136.61 218.213C136.61 220.131 138.093 221.23 139.959 221.23ZM140.189 219.875C138.988 219.875 138.118 219.338 138.118 218.29C138.118 217.139 139.167 216.781 140.343 216.628C140.982 216.551 142.695 216.372 142.951 216.065V217.446C142.951 218.673 141.979 219.875 140.189 219.875ZM154.167 213.381C153.694 211.987 152.633 211.054 150.69 211.054C148.619 211.054 147.085 212.23 147.085 213.892C147.085 215.247 147.89 216.155 149.693 216.577L151.329 216.96C152.32 217.19 152.787 217.663 152.787 218.341C152.787 219.185 151.892 219.875 150.485 219.875C149.252 219.875 148.478 219.344 148.21 218.29L146.778 218.648C147.13 220.316 148.504 221.205 150.511 221.205C152.793 221.205 154.346 219.958 154.346 218.264C154.346 216.896 153.49 216.033 151.738 215.605L150.281 215.247C149.118 214.96 148.593 214.57 148.593 213.815C148.593 212.972 149.488 212.358 150.69 212.358C152.007 212.358 152.55 213.087 152.812 213.764L154.167 213.381ZM163.572 213.381C163.099 211.987 162.037 211.054 160.094 211.054C158.023 211.054 156.489 212.23 156.489 213.892C156.489 215.247 157.295 216.155 159.097 216.577L160.733 216.96C161.724 217.19 162.191 217.663 162.191 218.341C162.191 219.185 161.296 219.875 159.89 219.875C158.656 219.875 157.883 219.344 157.614 218.29L156.182 218.648C156.534 220.316 157.908 221.205 159.915 221.205C162.197 221.205 163.751 219.958 163.751 218.264C163.751 216.896 162.894 216.033 161.143 215.605L159.685 215.247C158.522 214.96 157.998 214.57 157.998 213.815C157.998 212.972 158.893 212.358 160.094 212.358C161.411 212.358 161.954 213.087 162.216 213.764L163.572 213.381ZM171.084 221H172.592V214.787C172.592 213.457 173.641 212.486 175.072 212.486C175.475 212.486 175.891 212.562 175.993 212.588V211.054C175.82 211.041 175.424 211.028 175.2 211.028C174.024 211.028 173.001 211.693 172.643 212.665H172.541V211.182H171.084V221ZM181.599 221.205C183.593 221.205 185.05 220.207 185.511 218.724L184.053 218.315C183.67 219.338 182.781 219.849 181.599 219.849C179.828 219.849 178.607 218.705 178.537 216.602H185.664V215.963C185.664 212.307 183.491 211.054 181.445 211.054C178.786 211.054 177.022 213.151 177.022 216.168C177.022 219.185 178.761 221.205 181.599 221.205ZM178.537 215.298C178.639 213.771 179.719 212.409 181.445 212.409C183.082 212.409 184.13 213.636 184.13 215.298H178.537ZM190.848 221.23C192.561 221.23 193.456 220.31 193.763 219.67H193.839V221H195.348V214.531C195.348 211.412 192.97 211.054 191.717 211.054C190.234 211.054 188.547 211.565 187.78 213.355L189.212 213.866C189.544 213.151 190.33 212.384 191.768 212.384C193.156 212.384 193.839 213.119 193.839 214.378V214.429C193.839 215.158 193.098 215.094 191.308 215.324C189.487 215.56 187.499 215.963 187.499 218.213C187.499 220.131 188.982 221.23 190.848 221.23ZM191.078 219.875C189.876 219.875 189.007 219.338 189.007 218.29C189.007 217.139 190.055 216.781 191.232 216.628C191.871 216.551 193.584 216.372 193.839 216.065V217.446C193.839 218.673 192.868 219.875 191.078 219.875ZM199.61 207.909H198.101V221H199.61V207.909ZM202.373 221H203.881V211.182H202.373V221ZM203.14 209.545C203.728 209.545 204.214 209.085 204.214 208.523C204.214 207.96 203.728 207.5 203.14 207.5C202.552 207.5 202.066 207.96 202.066 208.523C202.066 209.085 202.552 209.545 203.14 209.545ZM210.914 211.182H208.818V208.83H207.309V211.182H205.826V212.46H207.309V218.597C207.309 220.31 208.69 221.128 209.968 221.128C210.531 221.128 210.889 221.026 211.093 220.949L210.786 219.594C210.659 219.619 210.454 219.67 210.122 219.67C209.457 219.67 208.818 219.466 208.818 218.188V212.46H210.914V211.182ZM214.155 224.682C215.517 224.682 216.475 223.96 217.044 222.432L221.225 211.207L219.575 211.182L216.865 219.006H216.763L214.053 211.182H212.416L216.047 221.051L215.766 221.818C215.216 223.314 214.539 223.455 213.439 223.173L213.056 224.503C213.209 224.58 213.644 224.682 214.155 224.682Z" fill="white"/>
<g clip-path="url(#clip0_6_96)">
<path d="M127 48.5029V1.49692C127.362 0.60892 128.22 -0.00608008 129.22 -0.00608008C129.28 -0.00608008 129.34 -0.00408008 129.399 0.000919922H129.391H190.727C190.784 -0.00408008 190.851 -0.00708008 190.918 -0.00708008C192.158 -0.00708008 193.163 0.99792 193.163 2.23792C193.163 2.30492 193.16 2.37192 193.154 2.43692L193.155 2.42892C193.155 11.9029 193.155 21.3779 193.155 30.8339C193.155 36.4749 193.155 42.1149 193.155 47.7559C193.163 47.8219 193.167 47.8989 193.167 47.9769C193.167 49.0759 192.276 49.9669 191.177 49.9669C191.147 49.9669 191.117 49.9659 191.087 49.9649H191.091H129.645C129.543 49.9789 129.426 49.9879 129.306 49.9879C128.287 49.9879 127.408 49.3869 127.005 48.5209L126.998 48.5049L127 48.5029ZM189.066 4.14392H131.125V32.0919L131.764 31.6539L142.991 23.6039C143.388 23.2059 143.936 22.9599 144.543 22.9599C145.15 22.9599 145.698 23.2059 146.095 23.6039L157.888 32.0559C159.713 33.3699 161.539 34.6849 163.364 35.9629C163.696 36.2189 164.117 36.3739 164.575 36.3739C165.476 36.3739 166.237 35.7759 166.482 34.9549L166.486 34.9409C166.537 34.7709 166.566 34.5759 166.566 34.3729C166.566 33.5999 166.141 32.9259 165.511 32.5729L165.501 32.5679C162.958 30.7793 160.469 28.9843 158.035 27.1829L157.469 26.7629L157.798 26.5069L167.966 19.2049C168.363 18.8069 168.911 18.5609 169.518 18.5609C170.125 18.5609 170.673 18.8069 171.07 19.2049L188.412 31.6549L189.051 32.0749L189.066 4.14392Z" fill="#BDAE82"/>
<path d="M153.962 9.34597C156.987 9.34597 159.438 11.798 159.438 14.822C159.484 15.09 159.511 15.399 159.511 15.713C159.511 18.738 157.059 21.189 154.035 21.189C151.011 21.189 148.559 18.737 148.559 15.713C148.559 15.398 148.586 15.09 148.637 14.789L148.632 14.821C148.632 14.82 148.632 14.82 148.632 14.819C148.632 11.846 151.001 9.42597 153.955 9.34497H153.963L153.962 9.34597Z" fill="#CCBA8D"/>
</g>
<defs>
<clipPath id="clip0_6_96">
<rect width="66" height="50" fill="white" transform="translate(127)"/>
</clipPath>
</defs>
</svg>
