<svg width="320" height="240" viewBox="0 0 320 240" fill="none" xmlns="http://www.w3.org/2000/svg">
<path d="M89.6245 112.455H86.2083L91.2296 127H95.1926L100.207 112.455H96.7978L93.275 123.506H93.1401L89.6245 112.455ZM101.901 127H104.926V116.091H101.901V127ZM103.421 114.685C104.323 114.685 105.061 113.996 105.061 113.151C105.061 112.312 104.323 111.624 103.421 111.624C102.526 111.624 101.787 112.312 101.787 113.151C101.787 113.996 102.526 114.685 103.421 114.685ZM111.37 127.178C113.131 127.178 114.047 126.162 114.466 125.253H114.594V127H117.577V112.455H114.559V117.923H114.466C114.062 117.036 113.188 115.949 111.363 115.949C108.969 115.949 106.945 117.81 106.945 121.56C106.945 125.21 108.884 127.178 111.37 127.178ZM112.329 124.77C110.844 124.77 110.035 123.449 110.035 121.545C110.035 119.656 110.83 118.357 112.329 118.357C113.799 118.357 114.623 119.599 114.623 121.545C114.623 123.491 113.785 124.77 112.329 124.77ZM125.036 127.213C127.735 127.213 129.553 125.899 129.98 123.875L127.181 123.69C126.876 124.521 126.095 124.955 125.086 124.955C123.573 124.955 122.615 123.953 122.615 122.327V122.32H130.044V121.489C130.044 117.781 127.799 115.949 124.916 115.949C121.705 115.949 119.624 118.229 119.624 121.595C119.624 125.054 121.677 127.213 125.036 127.213ZM122.615 120.445C122.678 119.202 123.623 118.207 124.965 118.207C126.279 118.207 127.188 119.145 127.195 120.445H122.615ZM136.947 127.213C140.257 127.213 142.316 124.947 142.316 121.588C142.316 118.207 140.257 115.949 136.947 115.949C133.637 115.949 131.578 118.207 131.578 121.588C131.578 124.947 133.637 127.213 136.947 127.213ZM136.961 124.869C135.434 124.869 134.653 123.47 134.653 121.567C134.653 119.663 135.434 118.257 136.961 118.257C138.46 118.257 139.241 119.663 139.241 121.567C139.241 123.47 138.46 124.869 136.961 124.869ZM157.989 119.202C157.719 117.192 156.1 115.949 153.344 115.949C150.553 115.949 148.714 117.241 148.721 119.344C148.714 120.977 149.743 122.036 151.874 122.462L153.763 122.838C154.715 123.03 155.148 123.378 155.162 123.925C155.148 124.571 154.445 125.033 153.387 125.033C152.307 125.033 151.59 124.571 151.405 123.683L148.43 123.839C148.714 125.928 150.489 127.213 153.38 127.213C156.206 127.213 158.231 125.771 158.238 123.619C158.231 122.043 157.201 121.098 155.084 120.665L153.11 120.267C152.094 120.047 151.718 119.699 151.725 119.173C151.718 118.52 152.456 118.094 153.394 118.094C154.445 118.094 155.07 118.669 155.219 119.372L157.989 119.202ZM163.169 120.693C163.176 119.287 164.035 118.463 165.271 118.463C166.499 118.463 167.224 119.251 167.217 120.594V127H170.242V120.054C170.249 117.497 168.744 115.949 166.471 115.949C164.816 115.949 163.708 116.73 163.211 118.016H163.083V112.455H160.143V127H163.169V120.693ZM177.552 127.213C180.862 127.213 182.922 124.947 182.922 121.588C182.922 118.207 180.862 115.949 177.552 115.949C174.243 115.949 172.183 118.207 172.183 121.588C172.183 124.947 174.243 127.213 177.552 127.213ZM177.567 124.869C176.04 124.869 175.258 123.47 175.258 121.567C175.258 119.663 176.04 118.257 177.567 118.257C179.065 118.257 179.846 119.663 179.846 121.567C179.846 123.47 179.065 124.869 177.567 124.869ZM189.818 127.213C193.128 127.213 195.187 124.947 195.187 121.588C195.187 118.207 193.128 115.949 189.818 115.949C186.508 115.949 184.449 118.207 184.449 121.588C184.449 124.947 186.508 127.213 189.818 127.213ZM189.832 124.869C188.305 124.869 187.524 123.47 187.524 121.567C187.524 119.663 188.305 118.257 189.832 118.257C191.331 118.257 192.112 119.663 192.112 121.567C192.112 123.47 191.331 124.869 189.832 124.869ZM202.957 116.091H200.905V113.477H197.879V116.091H196.388V118.364H197.879V124.045C197.865 126.183 199.321 127.241 201.515 127.149C202.297 127.121 202.851 126.964 203.156 126.865L202.68 124.614C202.531 124.642 202.211 124.713 201.927 124.713C201.324 124.713 200.905 124.486 200.905 123.648V118.364H202.957V116.091ZM204.928 127H207.954V116.091H204.928V127ZM206.448 114.685C207.35 114.685 208.089 113.996 208.089 113.151C208.089 112.312 207.35 111.624 206.448 111.624C205.553 111.624 204.814 112.312 204.814 113.151C204.814 113.996 205.553 114.685 206.448 114.685ZM213.403 120.693C213.41 119.287 214.248 118.463 215.47 118.463C216.684 118.463 217.416 119.259 217.409 120.594V127H220.434V120.054C220.434 117.511 218.943 115.949 216.67 115.949C215.051 115.949 213.879 116.744 213.389 118.016H213.261V116.091H210.377V127H213.403V120.693ZM227.733 131.318C230.851 131.318 233.067 129.898 233.067 127.107V116.091H230.063V117.923H229.949C229.545 117.036 228.657 115.949 226.831 115.949C224.438 115.949 222.414 117.81 222.414 121.524C222.414 125.153 224.381 126.844 226.839 126.844C228.579 126.844 229.552 125.97 229.949 125.068H230.077V127.064C230.077 128.562 229.118 129.145 227.805 129.145C226.469 129.145 225.795 128.562 225.546 127.902L222.748 128.278C223.11 129.997 224.793 131.318 227.733 131.318ZM227.797 124.571C226.313 124.571 225.503 123.392 225.503 121.51C225.503 119.656 226.299 118.357 227.797 118.357C229.268 118.357 230.091 119.599 230.091 121.51C230.091 123.435 229.253 124.571 227.797 124.571Z" fill="white"/>
<path d="M42.6564 176C42.1706 173.315 40.0229 171.73 37.3894 171.73C34.04 171.73 31.611 174.312 31.611 178.455C31.611 182.597 34.04 185.179 37.3894 185.179C40.0229 185.179 42.1706 183.594 42.6564 180.909H41.0712C40.6877 182.724 39.128 183.696 37.3894 183.696C35.0115 183.696 33.1451 181.855 33.1451 178.455C33.1451 175.054 35.0115 173.213 37.3894 173.213C39.128 173.213 40.6877 174.185 41.0712 176H42.6564ZM47.9027 185.23C49.6158 185.23 50.5107 184.31 50.8175 183.67H50.8942V185H52.4027V178.531C52.4027 175.412 50.0249 175.054 48.772 175.054C47.2891 175.054 45.6016 175.565 44.8345 177.355L46.2663 177.866C46.5987 177.151 47.3849 176.384 48.8232 176.384C50.2102 176.384 50.8942 177.119 50.8942 178.378V178.429C50.8942 179.158 50.1527 179.094 48.3629 179.324C46.5412 179.56 44.5533 179.963 44.5533 182.213C44.5533 184.131 46.0362 185.23 47.9027 185.23ZM48.1328 183.875C46.9311 183.875 46.0618 183.338 46.0618 182.29C46.0618 181.139 47.1101 180.781 48.2862 180.628C48.9254 180.551 50.6385 180.372 50.8942 180.065V181.446C50.8942 182.673 49.9226 183.875 48.1328 183.875ZM55.1561 188.682H56.6646V183.491H56.7924C57.1248 184.028 57.764 185.205 59.6561 185.205C62.1106 185.205 63.8237 183.236 63.8237 180.116C63.8237 177.023 62.1106 175.054 59.6305 175.054C57.7129 175.054 57.1248 176.23 56.7924 176.741H56.6135V175.182H55.1561V188.682ZM56.639 180.091C56.639 177.892 57.6106 176.409 59.4515 176.409C61.3691 176.409 62.3152 178.02 62.3152 180.091C62.3152 182.188 61.3436 183.849 59.4515 183.849C57.6362 183.849 56.639 182.315 56.639 180.091ZM70.3947 175.182H68.2981V172.83H66.7896V175.182H65.3066V176.46H66.7896V182.597C66.7896 184.31 68.1703 185.128 69.4487 185.128C70.0112 185.128 70.3691 185.026 70.5737 184.949L70.2669 183.594C70.139 183.619 69.9345 183.67 69.6021 183.67C68.9373 183.67 68.2981 183.466 68.2981 182.188V176.46H70.3947V175.182ZM78.8514 180.986C78.8514 182.827 77.4451 183.67 76.3201 183.67C75.0673 183.67 74.1724 182.75 74.1724 181.318V175.182H72.6639V181.42C72.6639 183.926 73.9934 185.128 75.8343 185.128C77.3173 185.128 78.2889 184.335 78.7491 183.338H78.8514V185H80.3599V175.182H78.8514V180.986ZM83.1229 185H84.6314V178.787C84.6314 177.457 85.6797 176.486 87.1115 176.486C87.5142 176.486 87.9297 176.562 88.032 176.588V175.054C87.8594 175.041 87.4631 175.028 87.2393 175.028C86.0632 175.028 85.0405 175.693 84.6825 176.665H84.5803V175.182H83.1229V185ZM93.6378 185.205C95.6321 185.205 97.0895 184.207 97.5497 182.724L96.0923 182.315C95.7088 183.338 94.8203 183.849 93.6378 183.849C91.8672 183.849 90.6463 182.705 90.576 180.602H97.7031V179.963C97.7031 176.307 95.5298 175.054 93.4844 175.054C90.8253 175.054 89.0611 177.151 89.0611 180.168C89.0611 183.185 90.7997 185.205 93.6378 185.205ZM90.576 179.298C90.6783 177.771 91.7585 176.409 93.4844 176.409C95.1207 176.409 96.169 177.636 96.169 179.298H90.576ZM106.032 188.682C107.393 188.682 108.352 187.96 108.921 186.432L113.102 175.207L111.452 175.182L108.742 183.006H108.64L105.93 175.182H104.293L107.924 185.051L107.643 185.818C107.093 187.314 106.415 187.455 105.316 187.173L104.933 188.503C105.086 188.58 105.521 188.682 106.032 188.682ZM118.735 185.205C121.394 185.205 123.183 183.185 123.183 180.142C123.183 177.074 121.394 175.054 118.735 175.054C116.075 175.054 114.286 177.074 114.286 180.142C114.286 183.185 116.075 185.205 118.735 185.205ZM118.735 183.849C116.715 183.849 115.794 182.111 115.794 180.142C115.794 178.173 116.715 176.409 118.735 176.409C120.754 176.409 121.675 178.173 121.675 180.142C121.675 182.111 120.754 183.849 118.735 183.849ZM131.674 180.986C131.674 182.827 130.267 183.67 129.142 183.67C127.89 183.67 126.995 182.75 126.995 181.318V175.182H125.486V181.42C125.486 183.926 126.816 185.128 128.657 185.128C130.14 185.128 131.111 184.335 131.571 183.338H131.674V185H133.182V175.182H131.674V180.986ZM135.945 185H137.454V178.787C137.454 177.457 138.502 176.486 139.934 176.486C140.336 176.486 140.752 176.562 140.854 176.588V175.054C140.682 175.041 140.285 175.028 140.062 175.028C138.885 175.028 137.863 175.693 137.505 176.665H137.403V175.182H135.945V185ZM147.705 185H149.213V178.864C149.213 177.425 150.262 176.409 151.438 176.409C152.582 176.409 153.381 177.157 153.381 178.276V185H154.915V178.608C154.915 177.342 155.708 176.409 157.088 176.409C158.162 176.409 159.083 176.978 159.083 178.429V185H160.591V178.429C160.591 176.121 159.351 175.054 157.6 175.054C156.194 175.054 155.164 175.7 154.659 176.716H154.557C154.071 175.668 153.215 175.054 151.924 175.054C150.645 175.054 149.699 175.668 149.29 176.716H149.162V175.182H147.705V185ZM167.338 185.205C169.997 185.205 171.787 183.185 171.787 180.142C171.787 177.074 169.997 175.054 167.338 175.054C164.679 175.054 162.889 177.074 162.889 180.142C162.889 183.185 164.679 185.205 167.338 185.205ZM167.338 183.849C165.318 183.849 164.398 182.111 164.398 180.142C164.398 178.173 165.318 176.409 167.338 176.409C169.358 176.409 170.278 178.173 170.278 180.142C170.278 182.111 169.358 183.849 167.338 183.849ZM174.09 185H175.598V178.864C175.598 177.425 176.646 176.409 177.823 176.409C178.967 176.409 179.766 177.157 179.766 178.276V185H181.3V178.608C181.3 177.342 182.093 176.409 183.473 176.409C184.547 176.409 185.468 176.978 185.468 178.429V185H186.976V178.429C186.976 176.121 185.736 175.054 183.985 175.054C182.578 175.054 181.549 175.7 181.044 176.716H180.942C180.456 175.668 179.6 175.054 178.308 175.054C177.03 175.054 176.084 175.668 175.675 176.716H175.547V175.182H174.09V185ZM193.851 185.205C195.845 185.205 197.302 184.207 197.763 182.724L196.305 182.315C195.922 183.338 195.033 183.849 193.851 183.849C192.08 183.849 190.859 182.705 190.789 180.602H197.916V179.963C197.916 176.307 195.743 175.054 193.697 175.054C191.038 175.054 189.274 177.151 189.274 180.168C189.274 183.185 191.013 185.205 193.851 185.205ZM190.789 179.298C190.891 177.771 191.971 176.409 193.697 176.409C195.334 176.409 196.382 177.636 196.382 179.298H190.789ZM201.719 179.094C201.719 177.381 202.78 176.409 204.225 176.409C205.625 176.409 206.475 177.323 206.475 178.864V185H207.983V178.761C207.983 176.256 206.648 175.054 204.66 175.054C203.177 175.054 202.256 175.719 201.796 176.716H201.668V175.182H200.211V185H201.719V179.094ZM215.01 175.182H212.913V172.83H211.405V175.182H209.922V176.46H211.405V182.597C211.405 184.31 212.786 185.128 214.064 185.128C214.626 185.128 214.984 185.026 215.189 184.949L214.882 183.594C214.754 183.619 214.55 183.67 214.217 183.67C213.553 183.67 212.913 183.466 212.913 182.188V176.46H215.01V175.182ZM224.058 177.381C223.585 175.987 222.524 175.054 220.581 175.054C218.51 175.054 216.975 176.23 216.975 177.892C216.975 179.247 217.781 180.155 219.583 180.577L221.22 180.96C222.211 181.19 222.677 181.663 222.677 182.341C222.677 183.185 221.782 183.875 220.376 183.875C219.142 183.875 218.369 183.344 218.1 182.29L216.669 182.648C217.02 184.316 218.395 185.205 220.402 185.205C222.684 185.205 224.237 183.958 224.237 182.264C224.237 180.896 223.38 180.033 221.629 179.605L220.172 179.247C219.008 178.96 218.484 178.57 218.484 177.815C218.484 176.972 219.379 176.358 220.581 176.358C221.897 176.358 222.441 177.087 222.703 177.764L224.058 177.381ZM238.525 177.381C238.052 175.987 236.991 175.054 235.047 175.054C232.976 175.054 231.442 176.23 231.442 177.892C231.442 179.247 232.248 180.155 234.05 180.577L235.687 180.96C236.677 181.19 237.144 181.663 237.144 182.341C237.144 183.185 236.249 183.875 234.843 183.875C233.609 183.875 232.836 183.344 232.567 182.29L231.135 182.648C231.487 184.316 232.861 185.205 234.868 185.205C237.15 185.205 238.704 183.958 238.704 182.264C238.704 180.896 237.847 180.033 236.096 179.605L234.638 179.247C233.475 178.96 232.951 178.57 232.951 177.815C232.951 176.972 233.846 176.358 235.047 176.358C236.364 176.358 236.907 177.087 237.17 177.764L238.525 177.381ZM244.963 185.205C247.622 185.205 249.412 183.185 249.412 180.142C249.412 177.074 247.622 175.054 244.963 175.054C242.304 175.054 240.514 177.074 240.514 180.142C240.514 183.185 242.304 185.205 244.963 185.205ZM244.963 183.849C242.943 183.849 242.023 182.111 242.023 180.142C242.023 178.173 242.943 176.409 244.963 176.409C246.983 176.409 247.903 178.173 247.903 180.142C247.903 182.111 246.983 183.849 244.963 183.849ZM261.047 175.182H258.95V172.83H257.442V175.182H255.959V176.46H257.442V182.597C257.442 184.31 258.823 185.128 260.101 185.128C260.664 185.128 261.021 185.026 261.226 184.949L260.919 183.594C260.791 183.619 260.587 183.67 260.254 183.67C259.59 183.67 258.95 183.466 258.95 182.188V176.46H261.047V175.182ZM265.036 179.094C265.036 177.381 266.129 176.409 267.618 176.409C269.037 176.409 269.894 177.304 269.894 178.864V185H271.402V178.761C271.402 176.237 270.06 175.054 268.053 175.054C266.506 175.054 265.624 175.7 265.164 176.716H265.036V171.909H263.527V185H265.036V179.094ZM277.051 185.23C278.764 185.23 279.659 184.31 279.966 183.67H280.043V185H281.551V178.531C281.551 175.412 279.173 175.054 277.92 175.054C276.438 175.054 274.75 175.565 273.983 177.355L275.415 177.866C275.747 177.151 276.533 176.384 277.972 176.384C279.359 176.384 280.043 177.119 280.043 178.378V178.429C280.043 179.158 279.301 179.094 277.511 179.324C275.69 179.56 273.702 179.963 273.702 182.213C273.702 184.131 275.185 185.23 277.051 185.23ZM277.281 183.875C276.08 183.875 275.21 183.338 275.21 182.29C275.21 181.139 276.259 180.781 277.435 180.628C278.074 180.551 279.787 180.372 280.043 180.065V181.446C280.043 182.673 279.071 183.875 277.281 183.875ZM288.574 175.182H286.478V172.83H284.969V175.182H283.486V176.46H284.969V182.597C284.969 184.31 286.35 185.128 287.628 185.128C288.191 185.128 288.549 185.026 288.753 184.949L288.447 183.594C288.319 183.619 288.114 183.67 287.782 183.67C287.117 183.67 286.478 183.466 286.478 182.188V176.46H288.574V175.182ZM56.1213 211.182H54.0247V208.83H52.5162V211.182H51.0332V212.46H52.5162V218.597C52.5162 220.31 53.8968 221.128 55.1752 221.128C55.7377 221.128 56.0957 221.026 56.3002 220.949L55.9934 219.594C55.8656 219.619 55.661 219.67 55.3287 219.67C54.6639 219.67 54.0247 219.466 54.0247 218.188V212.46H56.1213V211.182ZM60.1099 215.094C60.1099 213.381 61.2029 212.409 62.6923 212.409C64.1113 212.409 64.9679 213.304 64.9679 214.864V221H66.4764V214.761C66.4764 212.237 65.1341 211.054 63.127 211.054C61.5801 211.054 60.698 211.7 60.2377 212.716H60.1099V207.909H58.6014V221H60.1099V215.094ZM73.3526 221.205C75.3469 221.205 76.8043 220.207 77.2646 218.724L75.8072 218.315C75.4237 219.338 74.5352 219.849 73.3526 219.849C71.582 219.849 70.3612 218.705 70.2908 216.602H77.418V215.963C77.418 212.307 75.2447 211.054 73.1992 211.054C70.5401 211.054 68.7759 213.151 68.7759 216.168C68.7759 219.185 70.5146 221.205 73.3526 221.205ZM70.2908 215.298C70.3931 213.771 71.4734 212.409 73.1992 212.409C74.8356 212.409 75.8839 213.636 75.8839 215.298H70.2908ZM80.3855 224.682C81.747 224.682 82.7058 223.96 83.2747 222.432L87.4551 211.207L85.8059 211.182L83.0957 219.006H82.9934L80.2832 211.182H78.6468L82.2775 221.051L81.9963 221.818C81.4466 223.314 80.769 223.455 79.6696 223.173L79.286 224.503C79.4395 224.58 79.8741 224.682 80.3855 224.682ZM97.4027 221.23C99.1158 221.23 100.011 220.31 100.317 219.67H100.394V221H101.903V214.531C101.903 211.412 99.5249 211.054 98.272 211.054C96.7891 211.054 95.1016 211.565 94.3345 213.355L95.7663 213.866C96.0987 213.151 96.8849 212.384 98.3232 212.384C99.7102 212.384 100.394 213.119 100.394 214.378V214.429C100.394 215.158 99.6527 215.094 97.8629 215.324C96.0412 215.56 94.0533 215.963 94.0533 218.213C94.0533 220.131 95.5362 221.23 97.4027 221.23ZM97.6328 219.875C96.4311 219.875 95.5618 219.338 95.5618 218.29C95.5618 217.139 96.6101 216.781 97.7862 216.628C98.4254 216.551 100.138 216.372 100.394 216.065V217.446C100.394 218.673 99.4226 219.875 97.6328 219.875ZM106.165 207.909H104.656V221H106.165V207.909ZM111.152 221H112.635L114.783 213.457H114.936L117.084 221H118.567L121.558 211.182H119.973L117.851 218.673H117.749L115.678 211.182H114.067L111.97 218.699H111.868L109.746 211.182H108.161L111.152 221ZM126.442 221.23C128.155 221.23 129.05 220.31 129.357 219.67H129.433V221H130.942V214.531C130.942 211.412 128.564 211.054 127.311 211.054C125.828 211.054 124.141 211.565 123.374 213.355L124.805 213.866C125.138 213.151 125.924 212.384 127.362 212.384C128.749 212.384 129.433 213.119 129.433 214.378V214.429C129.433 215.158 128.692 215.094 126.902 215.324C125.08 215.56 123.092 215.963 123.092 218.213C123.092 220.131 124.575 221.23 126.442 221.23ZM126.672 219.875C125.47 219.875 124.601 219.338 124.601 218.29C124.601 217.139 125.649 216.781 126.825 216.628C127.464 216.551 129.178 216.372 129.433 216.065V217.446C129.433 218.673 128.462 219.875 126.672 219.875ZM134.315 224.682C135.677 224.682 136.635 223.96 137.204 222.432L141.385 211.207L139.736 211.182L137.025 219.006H136.923L134.213 211.182H132.577L136.207 221.051L135.926 221.818C135.376 223.314 134.699 223.455 133.599 223.173L133.216 224.503C133.369 224.58 133.804 224.682 134.315 224.682ZM150.335 213.381C149.862 211.987 148.801 211.054 146.858 211.054C144.787 211.054 143.253 212.23 143.253 213.892C143.253 215.247 144.058 216.155 145.861 216.577L147.497 216.96C148.488 217.19 148.955 217.663 148.955 218.341C148.955 219.185 148.06 219.875 146.653 219.875C145.42 219.875 144.646 219.344 144.378 218.29L142.946 218.648C143.298 220.316 144.672 221.205 146.679 221.205C148.961 221.205 150.514 219.958 150.514 218.264C150.514 216.896 149.658 216.033 147.906 215.605L146.449 215.247C145.286 214.96 144.761 214.57 144.761 213.815C144.761 212.972 145.656 212.358 146.858 212.358C148.175 212.358 148.718 213.087 148.98 213.764L150.335 213.381ZM164.802 213.381C164.329 211.987 163.268 211.054 161.325 211.054C159.254 211.054 157.72 212.23 157.72 213.892C157.72 215.247 158.525 216.155 160.328 216.577L161.964 216.96C162.955 217.19 163.421 217.663 163.421 218.341C163.421 219.185 162.526 219.875 161.12 219.875C159.887 219.875 159.113 219.344 158.845 218.29L157.413 218.648C157.764 220.316 159.139 221.205 161.146 221.205C163.428 221.205 164.981 219.958 164.981 218.264C164.981 216.896 164.124 216.033 162.373 215.605L160.916 215.247C159.752 214.96 159.228 214.57 159.228 213.815C159.228 212.972 160.123 212.358 161.325 212.358C162.642 212.358 163.185 213.087 163.447 213.764L164.802 213.381ZM171.522 211.182H169.425V208.83H167.917V211.182H166.434V212.46H167.917V218.597C167.917 220.31 169.297 221.128 170.576 221.128C171.138 221.128 171.496 221.026 171.701 220.949L171.394 219.594C171.266 219.619 171.061 219.67 170.729 219.67C170.064 219.67 169.425 219.466 169.425 218.188V212.46H171.522V211.182ZM176.68 221.23C178.393 221.23 179.288 220.31 179.595 219.67H179.672V221H181.18V214.531C181.18 211.412 178.802 211.054 177.549 211.054C176.066 211.054 174.379 211.565 173.612 213.355L175.044 213.866C175.376 213.151 176.162 212.384 177.6 212.384C178.988 212.384 179.672 213.119 179.672 214.378V214.429C179.672 215.158 178.93 215.094 177.14 215.324C175.319 215.56 173.331 215.963 173.331 218.213C173.331 220.131 174.814 221.23 176.68 221.23ZM176.91 219.875C175.708 219.875 174.839 219.338 174.839 218.29C174.839 217.139 175.887 216.781 177.064 216.628C177.703 216.551 179.416 216.372 179.672 216.065V217.446C179.672 218.673 178.7 219.875 176.91 219.875ZM184.553 224.682C185.915 224.682 186.874 223.96 187.443 222.432L191.623 211.207L189.974 211.182L187.264 219.006H187.161L184.451 211.182H182.815L186.445 221.051L186.164 221.818C185.615 223.314 184.937 223.455 183.838 223.173L183.454 224.503C183.607 224.58 184.042 224.682 184.553 224.682ZM200.906 221H202.389L204.537 213.457H204.69L206.838 221H208.321L211.312 211.182H209.727L207.605 218.673H207.502L205.431 211.182H203.821L201.724 218.699H201.622L199.5 211.182H197.914L200.906 221ZM213.306 221H214.815V211.182H213.306V221ZM214.074 209.545C214.662 209.545 215.147 209.085 215.147 208.523C215.147 207.96 214.662 207.5 214.074 207.5C213.485 207.5 213 207.96 213 208.523C213 209.085 213.485 209.545 214.074 209.545ZM221.848 211.182H219.751V208.83H218.243V211.182H216.76V212.46H218.243V218.597C218.243 220.31 219.623 221.128 220.902 221.128C221.464 221.128 221.822 221.026 222.027 220.949L221.72 219.594C221.592 219.619 221.388 219.67 221.055 219.67C220.39 219.67 219.751 219.466 219.751 218.188V212.46H221.848V211.182ZM225.836 215.094C225.836 213.381 226.93 212.409 228.419 212.409C229.838 212.409 230.694 213.304 230.694 214.864V221H232.203V214.761C232.203 212.237 230.861 211.054 228.854 211.054C227.307 211.054 226.425 211.7 225.964 212.716H225.836V207.909H224.328V221H225.836V215.094ZM240.997 224.682C242.358 224.682 243.317 223.96 243.886 222.432L248.066 211.207L246.417 211.182L243.707 219.006H243.605L240.895 211.182H239.258L242.889 221.051L242.608 221.818C242.058 223.314 241.38 223.455 240.281 223.173L239.897 224.503C240.051 224.58 240.485 224.682 240.997 224.682ZM253.699 221.205C256.358 221.205 258.148 219.185 258.148 216.142C258.148 213.074 256.358 211.054 253.699 211.054C251.04 211.054 249.251 213.074 249.251 216.142C249.251 219.185 251.04 221.205 253.699 221.205ZM253.699 219.849C251.68 219.849 250.759 218.111 250.759 216.142C250.759 214.173 251.68 212.409 253.699 212.409C255.719 212.409 256.64 214.173 256.64 216.142C256.64 218.111 255.719 219.849 253.699 219.849ZM266.638 216.986C266.638 218.827 265.232 219.67 264.107 219.67C262.854 219.67 261.96 218.75 261.96 217.318V211.182H260.451V217.42C260.451 219.926 261.781 221.128 263.621 221.128C265.104 221.128 266.076 220.335 266.536 219.338H266.638V221H268.147V211.182H266.638V216.986Z" fill="white"/>
<g clip-path="url(#clip0_6_93)">
<path d="M189.843 1.30696V48.781C189.465 49.535 188.698 50.043 187.812 50.043C187.748 50.043 187.685 50.04 187.622 50.035L187.63 50.036H132.194C132.128 50.044 132.051 50.048 131.973 50.048C130.876 50.048 129.987 49.159 129.987 48.062C129.987 47.984 129.991 47.907 130 47.831L129.999 47.84C129.999 32.6133 129.999 17.387 129.999 2.16096C129.994 2.10596 129.99 2.04196 129.99 1.97696C129.99 0.879962 130.879 -0.00903808 131.976 -0.00903808C132.047 -0.00903808 132.116 -0.00503808 132.185 0.00196192L132.176 0.000961916C150.666 0.000961916 169.145 0.000961916 187.612 0.000961916C187.687 -0.00803808 187.774 -0.0140381 187.863 -0.0140381C188.75 -0.0140381 189.511 0.524962 189.837 1.29296L189.842 1.30696H189.843ZM152.544 24.983V30.575C152.545 30.941 152.596 31.295 152.69 31.631L152.683 31.603C153.038 32.503 153.901 33.128 154.909 33.128C155.419 33.128 155.892 32.968 156.28 32.695L156.272 32.7C159.6 30.784 162.892 28.85 166.185 26.899C166.865 26.531 167.318 25.823 167.318 25.009C167.318 24.195 166.864 23.487 166.196 23.124L166.185 23.118C162.892 21.097 159.513 19.163 156.133 17.212C155.78 16.992 155.351 16.861 154.892 16.861C153.583 16.861 152.523 17.922 152.523 19.23C152.523 19.28 152.525 19.33 152.528 19.379V19.372C152.65 21.236 152.545 23.118 152.545 24.982L152.544 24.983ZM139.443 6.55096V3.57196H133.572V6.55096H139.443ZM133.484 46.376H139.442V43.449H133.484V46.376ZM148.833 3.57096H143.066V6.53296H148.833V3.57096ZM152.456 3.57096V6.53296H158.24V3.48396L152.456 3.57096ZM167.613 6.55096V3.57196H161.846V6.53396L167.613 6.55096ZM177.038 3.57096H171.219V6.53296H177.038V3.57096ZM167.631 46.394V43.554H161.847V46.481L167.631 46.394ZM148.815 46.394V43.554H143.048V46.481L148.815 46.394ZM158.24 46.394V43.554H152.473V46.498L158.24 46.394ZM177.038 43.449H171.219V46.376H177.038V43.449ZM186.289 6.55096V3.48496H180.627V6.55096H186.289ZM186.289 43.449H180.627V46.393H186.306L186.289 43.449Z" fill="#BDAE82"/>
</g>
<defs>
<clipPath id="clip0_6_93">
<rect width="60" height="50" fill="white" transform="translate(130)"/>
</clipPath>
</defs>
</svg>
